<?xml version="1.0" encoding="utf-8"?>
<!-- Generator: Adobe Illustrator 25.0.1, SVG Export Plug-In . SVG Version: 6.00 Build 0)  -->
<svg version="1.1" id="Layer_1" xmlns="http://www.w3.org/2000/svg" xmlns:xlink="http://www.w3.org/1999/xlink" x="0px" y="0px"
	 viewBox="0 0 220 150" style="enable-background:new 0 0 220 150;" xml:space="preserve">
<style type="text/css">
	.st0{display:none;}
	.st1{display:inline;}
	.st2{enable-background:new    ;}
	.st3{fill:#1E1E1E;}
	.st4{fill:#F8F8F8;}
	.st5{fill:#E9E9E9;}
	.st6{fill:none;stroke:#1E1E1E;stroke-width:6;stroke-linecap:round;}
	.st7{fill:#00B400;}
	.st8{fill:#FFFFFF;}
	.st9{fill:none;stroke:#E9E9E9;stroke-width:4;}
	.st10{display:inline;fill:none;}
	.st11{fill:#9DDB57;}
	.st12{fill:#FB9D50;}
	.st13{fill:none;}
	.st14{fill:#F9D477;}
</style>
<g id="Group_292" transform="translate(-1226 -658)" class="st0">
	<g id="Group_267" transform="translate(-4 -0.21)" class="st1">
		<g class="st2">
			<path class="st3" d="M1382.2,800.2v5.8h-0.6v-6.7h0.6l4.2,5.7v-5.7h0.6v6.7h-0.6L1382.2,800.2z"/>
			<path class="st3" d="M1391.7,799.2c1.9,0,3.2,1.5,3.2,3.4s-1.3,3.4-3.2,3.4c-2,0-3.2-1.5-3.2-3.4S1389.7,799.2,1391.7,799.2z
				 M1391.7,799.7c-1.6,0-2.6,1.2-2.6,2.9c0,1.7,1,2.9,2.6,2.9c1.6,0,2.6-1.3,2.6-2.9C1394.3,801,1393.3,799.7,1391.7,799.7z"/>
			<path class="st3" d="M1395.4,799.3h0.7l2.4,6l2.4-6h0.7l-2.7,6.7h-0.7L1395.4,799.3z"/>
		</g>
		<g class="st2">
			<path class="st3" d="M1347.1,799.2c1.9,0,3.2,1.5,3.2,3.4s-1.3,3.4-3.2,3.4c-2,0-3.2-1.5-3.2-3.4S1345.2,799.2,1347.1,799.2z
				 M1347.1,799.7c-1.6,0-2.6,1.2-2.6,2.9c0,1.7,1,2.9,2.6,2.9c1.6,0,2.6-1.3,2.6-2.9C1349.8,801,1348.7,799.7,1347.1,799.7z"/>
			<path class="st3" d="M1351.5,802.7c0-2,1.5-3.4,3.4-3.4c1.1,0,1.9,0.5,2.4,1.2l-0.5,0.3c-0.4-0.6-1.1-1-2-1
				c-1.5,0-2.8,1.2-2.8,2.9c0,1.7,1.2,2.9,2.8,2.9c0.8,0,1.5-0.4,2-1l0.5,0.3c-0.6,0.7-1.4,1.2-2.4,1.2
				C1353,806.1,1351.5,804.7,1351.5,802.7z"/>
			<path class="st3" d="M1360.2,799.9h-2.2v-0.5h4.9v0.5h-2.2v6.1h-0.6V799.9z"/>
		</g>
		<g class="st2">
			<path class="st3" d="M1307.5,804.6c0.4,0.5,1.1,1,2.1,1c1.4,0,1.8-0.8,1.8-1.3c0-0.9-0.9-1.2-1.8-1.4c-1-0.3-2.2-0.6-2.2-1.8
				c0-1.1,1-1.8,2.2-1.8c1,0,1.7,0.3,2.3,0.9l-0.4,0.4c-0.5-0.6-1.2-0.8-1.9-0.8c-0.9,0-1.6,0.5-1.6,1.2c0,0.8,0.8,1,1.7,1.3
				c1.1,0.3,2.3,0.6,2.3,2c0,0.8-0.6,1.9-2.4,1.9c-1.1,0-1.9-0.4-2.4-1.1L1307.5,804.6z"/>
			<path class="st3" d="M1313.4,799.3h4.2v0.5h-3.7v2.5h3.6v0.5h-3.6v2.6h3.7v0.5h-4.2V799.3z"/>
			<path class="st3" d="M1319,799.3h2.5c1.3,0,2,0.9,2,1.9c0,1-0.7,1.9-2,1.9h-1.9v2.8h-0.6V799.3z M1321.4,799.9h-1.9v2.9h1.9
				c0.9,0,1.5-0.6,1.5-1.4C1322.9,800.4,1322.3,799.9,1321.4,799.9z"/>
		</g>
		<g class="st2">
			<path class="st3" d="M1271.2,804.4h-3.5l-0.7,1.6h-0.6l2.7-6.7h0.7l2.7,6.7h-0.6L1271.2,804.4z M1267.8,803.8h3.2l-1.6-3.9
				L1267.8,803.8z"/>
			<path class="st3" d="M1273.3,799.3h0.6v4.1c0,1.3,0.7,2.2,2,2.2c1.3,0,2-0.8,2-2.2v-4.1h0.6v4.1c0,1.6-0.9,2.7-2.6,2.7
				c-1.7,0-2.6-1-2.6-2.7V799.3z"/>
			<path class="st3" d="M1283.3,799.2c1.1,0,1.9,0.4,2.5,1.1l-0.4,0.3c-0.5-0.6-1.2-0.9-2.1-0.9c-1.6,0-2.8,1.2-2.8,2.9
				c0,1.7,1.2,2.9,2.8,2.9c0.9,0,1.6-0.4,2-0.8v-1.6h-2.5v-0.5h3.1v2.3c-0.6,0.7-1.5,1.1-2.5,1.1c-1.9,0-3.4-1.4-3.4-3.5
				S1281.4,799.2,1283.3,799.2z"/>
		</g>
		<g class="st2">
			<path class="st3" d="M1230.5,804.9c0.3,0.4,0.7,0.7,1.3,0.7c0.9,0,1.5-0.6,1.5-1.5v-4.7h0.6v4.7c0,1.4-0.9,2-2,2
				c-0.7,0-1.3-0.3-1.7-0.8L1230.5,804.9z"/>
			<path class="st3" d="M1235.5,799.3h0.6v4.1c0,1.3,0.7,2.2,2,2.2c1.3,0,2-0.8,2-2.2v-4.1h0.6v4.1c0,1.6-0.9,2.7-2.6,2.7
				c-1.7,0-2.6-1-2.6-2.7V799.3z"/>
			<path class="st3" d="M1242.4,799.3h0.6v6.1h3.2v0.5h-3.8V799.3z"/>
		</g>
		<g class="st2">
			<path class="st3" d="M1421.2,799.3h2.5c2.1,0,3.5,1.4,3.5,3.3s-1.4,3.3-3.5,3.3h-2.5V799.3z M1423.6,805c1.4,0,2.3-1,2.3-2.3
				c0-1.3-0.8-2.3-2.3-2.3h-1.3v4.6H1423.6z"/>
			<path class="st3" d="M1428.3,799.3h4.6v1h-3.4v1.7h3.3v1h-3.3v1.8h3.4v1h-4.6V799.3z"/>
			<path class="st3" d="M1433.7,802.7c0-2,1.5-3.4,3.4-3.4c1.4,0,2.2,0.7,2.7,1.5l-1,0.5c-0.3-0.5-1-1-1.7-1c-1.3,0-2.2,1-2.2,2.4
				s1,2.4,2.2,2.4c0.8,0,1.4-0.4,1.7-1l1,0.5c-0.5,0.8-1.3,1.5-2.7,1.5C1435.3,806.1,1433.7,804.7,1433.7,802.7z"/>
		</g>
		<path id="Rectangle_1850" class="st4" d="M1430.3,692L1430.3,692c2.2,0,4,1.8,4,4v83c0,2.2-1.8,4-4,4l0,0c-2.2,0-4-1.8-4-4v-83
			C1426.3,693.8,1428.1,692,1430.3,692z"/>
		<path id="Rectangle_1845" class="st4" d="M1391.3,692L1391.3,692c2.2,0,4,1.8,4,4v83c0,2.2-1.8,4-4,4l0,0c-2.2,0-4-1.8-4-4v-83
			C1387.3,693.8,1389.1,692,1391.3,692z"/>
		<path id="Rectangle_1846" class="st4" d="M1353.3,692L1353.3,692c2.2,0,4,1.8,4,4v83c0,2.2-1.8,4-4,4l0,0c-2.2,0-4-1.8-4-4v-83
			C1349.3,693.8,1351.1,692,1353.3,692z"/>
		<path id="Rectangle_1851" class="st4" d="M1315.3,692L1315.3,692c2.2,0,4,1.8,4,4v83c0,2.2-1.8,4-4,4l0,0c-2.2,0-4-1.8-4-4v-83
			C1311.3,693.8,1313.1,692,1315.3,692z"/>
		<path id="Rectangle_1847" class="st4" d="M1276.3,692L1276.3,692c2.2,0,4,1.8,4,4v83c0,2.2-1.8,4-4,4l0,0c-2.2,0-4-1.8-4-4v-83
			C1272.3,693.8,1274.1,692,1276.3,692z"/>
		<path id="Rectangle_1849" class="st4" d="M1238.3,692L1238.3,692c2.2,0,4,1.8,4,4v83c0,2.2-1.8,4-4,4l0,0c-2.2,0-4-1.8-4-4v-83
			C1234.3,693.8,1236.1,692,1238.3,692z"/>
		<path id="Rectangle_1848" class="st4" d="M1315.3,692L1315.3,692c2.2,0,4,1.8,4,4v83c0,2.2-1.8,4-4,4l0,0c-2.2,0-4-1.8-4-4v-83
			C1311.3,693.8,1313.1,692,1315.3,692z"/>
		<path id="Rectangle_1548" class="st5" d="M1430.3,692L1430.3,692c2.2,0,4,1.8,4,4v83c0,2.2-1.8,4-4,4l0,0c-2.2,0-4-1.8-4-4v-83
			C1426.3,693.8,1428.1,692,1430.3,692z"/>
		<path id="Rectangle_1554" class="st5" d="M1238.3,730L1238.3,730c2.2,0,4,1.8,4,4v45c0,2.2-1.8,4-4,4l0,0c-2.2,0-4-1.8-4-4v-45
			C1234.3,731.8,1236.1,730,1238.3,730z"/>
		<path id="Rectangle_1555" class="st5" d="M1276.3,713L1276.3,713c2.2,0,4,1.8,4,4v62c0,2.2-1.8,4-4,4l0,0c-2.2,0-4-1.8-4-4v-62
			C1272.3,714.8,1274.1,713,1276.3,713z"/>
		<path id="Rectangle_1556" class="st5" d="M1315.3,692L1315.3,692c2.2,0,4,1.8,4,4v83c0,2.2-1.8,4-4,4l0,0c-2.2,0-4-1.8-4-4v-83
			C1311.3,693.8,1313.1,692,1315.3,692z"/>
		<path id="Rectangle_1557" class="st5" d="M1353.3,703L1353.3,703c2.2,0,4,1.8,4,4v72c0,2.2-1.8,4-4,4l0,0c-2.2,0-4-1.8-4-4v-72
			C1349.3,704.8,1351.1,703,1353.3,703z"/>
		<path id="Rectangle_1558" class="st5" d="M1391.3,713L1391.3,713c2.2,0,4,1.8,4,4v62c0,2.2-1.8,4-4,4l0,0c-2.2,0-4-1.8-4-4v-62
			C1387.3,714.8,1389.1,713,1391.3,713z"/>
		<path id="Line_Chart" class="st6" d="M1238.4,732.9c0,0,19-17.9,38.6-17.9s18.2-20.3,38.1-20.3c19.9,0,18.8,10.8,38.6,10.8
			s17.9,9.5,37.8,9.5s18.9-20.3,38.5-20.3"/>
		<g id="Details" transform="translate(1419.139 660.21)">
			<path id="Tag" class="st7" d="M25.1,16.3l-11.6,7.8c-1.2,0.8-2.8,0.8-4,0l-11.6-7.8c-1-0.7-1.6-1.8-1.6-3V3.7
				c0-2,1.6-3.7,3.6-3.7c0,0,0,0,0,0H23c2,0,3.7,1.6,3.7,3.7v9.7C26.7,14.5,26.1,15.6,25.1,16.3z"/>
			<g class="st2">
				<path class="st8" d="M11.1,8.5l-2,2L7.7,9l3.8-3.8h2.2v12h-2.6V8.5z"/>
			</g>
			<g id="Ellipse_10" transform="translate(7.861 28.79)">
				<circle class="st7" cx="3.3" cy="7" r="7"/>
				<circle class="st9" cx="3.3" cy="7" r="5"/>
			</g>
		</g>
	</g>
	<rect id="Rectangle_1832" x="1226.3" y="658" class="st10" width="220" height="150"/>
</g>
<g id="Group_291" transform="translate(-1226 -658)" class="st0">
	<g id="Group_268" transform="translate(-5)" class="st1">
		<g class="st2">
			<path class="st3" d="M1383.2,800.2v5.8h-0.6v-6.7h0.6l4.2,5.7v-5.7h0.6v6.7h-0.6L1383.2,800.2z"/>
			<path class="st3" d="M1392.7,799.2c1.9,0,3.2,1.5,3.2,3.4s-1.3,3.4-3.2,3.4c-2,0-3.2-1.5-3.2-3.4S1390.7,799.2,1392.7,799.2z
				 M1392.7,799.7c-1.6,0-2.6,1.2-2.6,2.9c0,1.7,1,2.9,2.6,2.9c1.6,0,2.6-1.3,2.6-2.9C1395.3,801,1394.3,799.7,1392.7,799.7z"/>
			<path class="st3" d="M1396.4,799.3h0.7l2.4,6l2.4-6h0.7l-2.7,6.7h-0.7L1396.4,799.3z"/>
		</g>
		<g class="st2">
			<path class="st3" d="M1348.1,799.2c1.9,0,3.2,1.5,3.2,3.4s-1.3,3.4-3.2,3.4c-2,0-3.2-1.5-3.2-3.4S1346.2,799.2,1348.1,799.2z
				 M1348.1,799.7c-1.6,0-2.6,1.2-2.6,2.9c0,1.7,1,2.9,2.6,2.9c1.6,0,2.6-1.3,2.6-2.9C1350.8,801,1349.7,799.7,1348.1,799.7z"/>
			<path class="st3" d="M1352.5,802.7c0-2,1.5-3.4,3.4-3.4c1.1,0,1.9,0.5,2.4,1.2l-0.5,0.3c-0.4-0.6-1.1-1-2-1
				c-1.5,0-2.8,1.2-2.8,2.9c0,1.7,1.2,2.9,2.8,2.9c0.8,0,1.5-0.4,2-1l0.5,0.3c-0.6,0.7-1.4,1.2-2.4,1.2
				C1354,806.1,1352.5,804.7,1352.5,802.7z"/>
			<path class="st3" d="M1361.2,799.9h-2.2v-0.5h4.9v0.5h-2.2v6.1h-0.6V799.9z"/>
		</g>
		<g class="st2">
			<path class="st3" d="M1308.5,804.6c0.4,0.5,1.1,1,2.1,1c1.4,0,1.8-0.8,1.8-1.3c0-0.9-0.9-1.2-1.8-1.4c-1-0.3-2.2-0.6-2.2-1.8
				c0-1.1,1-1.8,2.2-1.8c1,0,1.7,0.3,2.3,0.9l-0.4,0.4c-0.5-0.6-1.2-0.8-1.9-0.8c-0.9,0-1.6,0.5-1.6,1.2c0,0.8,0.8,1,1.7,1.3
				c1.1,0.3,2.3,0.6,2.3,2c0,0.8-0.6,1.9-2.4,1.9c-1.1,0-1.9-0.4-2.4-1.1L1308.5,804.6z"/>
			<path class="st3" d="M1314.4,799.3h4.2v0.5h-3.7v2.5h3.6v0.5h-3.6v2.6h3.7v0.5h-4.2V799.3z"/>
			<path class="st3" d="M1320,799.3h2.5c1.3,0,2,0.9,2,1.9c0,1-0.7,1.9-2,1.9h-1.9v2.8h-0.6V799.3z M1322.4,799.9h-1.9v2.9h1.9
				c0.9,0,1.5-0.6,1.5-1.4C1323.9,800.4,1323.3,799.9,1322.4,799.9z"/>
		</g>
		<g class="st2">
			<path class="st3" d="M1272.2,804.4h-3.5l-0.7,1.6h-0.6l2.7-6.7h0.7l2.7,6.7h-0.6L1272.2,804.4z M1268.8,803.8h3.2l-1.6-3.9
				L1268.8,803.8z"/>
			<path class="st3" d="M1274.3,799.3h0.6v4.1c0,1.3,0.7,2.2,2,2.2c1.3,0,2-0.8,2-2.2v-4.1h0.6v4.1c0,1.6-0.9,2.7-2.6,2.7
				c-1.7,0-2.6-1-2.6-2.7V799.3z"/>
			<path class="st3" d="M1284.3,799.2c1.1,0,1.9,0.4,2.5,1.1l-0.4,0.3c-0.5-0.6-1.2-0.9-2.1-0.9c-1.6,0-2.8,1.2-2.8,2.9
				c0,1.7,1.2,2.9,2.8,2.9c0.9,0,1.6-0.4,2-0.8v-1.6h-2.5v-0.5h3.1v2.3c-0.6,0.7-1.5,1.1-2.5,1.1c-1.9,0-3.4-1.4-3.4-3.5
				S1282.4,799.2,1284.3,799.2z"/>
		</g>
		<g class="st2">
			<path class="st3" d="M1231.5,804.9c0.3,0.4,0.7,0.7,1.3,0.7c0.9,0,1.5-0.6,1.5-1.5v-4.7h0.6v4.7c0,1.4-0.9,2-2,2
				c-0.7,0-1.3-0.3-1.7-0.8L1231.5,804.9z"/>
			<path class="st3" d="M1236.5,799.3h0.6v4.1c0,1.3,0.7,2.2,2,2.2c1.3,0,2-0.8,2-2.2v-4.1h0.6v4.1c0,1.6-0.9,2.7-2.6,2.7
				c-1.7,0-2.6-1-2.6-2.7V799.3z"/>
			<path class="st3" d="M1243.4,799.3h0.6v6.1h3.2v0.5h-3.8V799.3z"/>
		</g>
		<g class="st2">
			<path class="st3" d="M1422.2,799.3h2.5c2.1,0,3.5,1.4,3.5,3.3s-1.4,3.3-3.5,3.3h-2.5V799.3z M1424.6,805c1.4,0,2.3-1,2.3-2.3
				c0-1.3-0.8-2.3-2.3-2.3h-1.3v4.6H1424.6z"/>
			<path class="st3" d="M1429.3,799.3h4.6v1h-3.4v1.7h3.3v1h-3.3v1.8h3.4v1h-4.6V799.3z"/>
			<path class="st3" d="M1434.7,802.7c0-2,1.5-3.4,3.4-3.4c1.4,0,2.2,0.7,2.7,1.5l-1,0.5c-0.3-0.5-1-1-1.7-1c-1.3,0-2.2,1-2.2,2.4
				s1,2.4,2.2,2.4c0.8,0,1.4-0.4,1.7-1l1,0.5c-0.5,0.8-1.3,1.5-2.7,1.5C1436.3,806.1,1434.7,804.7,1434.7,802.7z"/>
		</g>
		<path id="Rectangle_1852" class="st4" d="M1431.3,691.8L1431.3,691.8c2.2,0,4,1.8,4,4v83c0,2.2-1.8,4-4,4l0,0c-2.2,0-4-1.8-4-4
			v-83C1427.3,693.6,1429.1,691.8,1431.3,691.8z"/>
		<path id="Rectangle_1853" class="st4" d="M1392.3,691.8L1392.3,691.8c2.2,0,4,1.8,4,4v83c0,2.2-1.8,4-4,4l0,0c-2.2,0-4-1.8-4-4
			v-83C1388.3,693.6,1390.1,691.8,1392.3,691.8z"/>
		<path id="Rectangle_1854" class="st4" d="M1354.3,691.8L1354.3,691.8c2.2,0,4,1.8,4,4v83c0,2.2-1.8,4-4,4l0,0c-2.2,0-4-1.8-4-4
			v-83C1350.3,693.6,1352.1,691.8,1354.3,691.8z"/>
		<path id="Rectangle_1855" class="st4" d="M1316.3,691.8L1316.3,691.8c2.2,0,4,1.8,4,4v83c0,2.2-1.8,4-4,4l0,0c-2.2,0-4-1.8-4-4
			v-83C1312.3,693.6,1314.1,691.8,1316.3,691.8z"/>
		<path id="Rectangle_1856" class="st4" d="M1277.3,691.8L1277.3,691.8c2.2,0,4,1.8,4,4v83c0,2.2-1.8,4-4,4l0,0c-2.2,0-4-1.8-4-4
			v-83C1273.3,693.6,1275.1,691.8,1277.3,691.8z"/>
		<path id="Rectangle_1857" class="st4" d="M1239.3,691.8L1239.3,691.8c2.2,0,4,1.8,4,4v83c0,2.2-1.8,4-4,4l0,0c-2.2,0-4-1.8-4-4
			v-83C1235.3,693.6,1237.1,691.8,1239.3,691.8z"/>
		<path id="Rectangle_1590" class="st5" d="M1431.3,699L1431.3,699c2.2,0,4,1.8,4,4v76c0,2.2-1.8,4-4,4l0,0c-2.2,0-4-1.8-4-4v-76
			C1427.3,700.8,1429.1,699,1431.3,699z"/>
		<path id="Rectangle_1621" class="st5" d="M1239.3,713L1239.3,713c2.2,0,4,1.8,4,4v62c0,2.2-1.8,4-4,4l0,0c-2.2,0-4-1.8-4-4v-62
			C1235.3,714.8,1237.1,713,1239.3,713z"/>
		<path id="Rectangle_1620" class="st5" d="M1277.3,727L1277.3,727c2.2,0,4,1.8,4,4v48c0,2.2-1.8,4-4,4l0,0c-2.2,0-4-1.8-4-4v-48
			C1273.3,728.8,1275.1,727,1277.3,727z"/>
		<path id="Rectangle_1605" class="st5" d="M1316.3,706L1316.3,706c2.2,0,4,1.8,4,4v69c0,2.2-1.8,4-4,4l0,0c-2.2,0-4-1.8-4-4v-69
			C1312.3,707.8,1314.1,706,1316.3,706z"/>
		<path id="Rectangle_1602" class="st5" d="M1354.3,692L1354.3,692c2.2,0,4,1.8,4,4v83c0,2.2-1.8,4-4,4l0,0c-2.2,0-4-1.8-4-4v-83
			C1350.3,693.8,1352.1,692,1354.3,692z"/>
		<path id="Rectangle_1596" class="st5" d="M1392.3,692L1392.3,692c2.2,0,4,1.8,4,4v83c0,2.2-1.8,4-4,4l0,0c-2.2,0-4-1.8-4-4v-83
			C1388.3,693.8,1390.1,692,1392.3,692z"/>
		<path id="Line_Chart-2" class="st6" d="M1239.2,716c0,0,18,13.5,37.6,13.5s19.7-21.1,39.6-21.1s18.5-14.6,38.3-14.6h38.1
			c19.9,0,18.1,8.3,37.7,8.3"/>
		<g id="Details-2" transform="translate(1784.139 666.21)">
			<path id="Tag-2" class="st7" d="M-338.9,16.3l-11.6,7.8c-1.2,0.8-2.8,0.8-4,0l-11.6-7.8c-1-0.7-1.6-1.8-1.6-3V3.7
				c0-2,1.6-3.7,3.6-3.7c0,0,0,0,0,0h23c2,0,3.7,1.6,3.7,3.7v9.7C-337.3,14.5-337.9,15.6-338.9,16.3z"/>
			<g class="st2">
				<path class="st8" d="M-357.4,15.2c4.9-3.6,6.4-4.9,6.4-6.3c0-1-1-1.6-2-1.6c-1.4,0-2.4,0.5-3.2,1.4l-1.5-1.7c1.2-1.4,3-2,4.6-2
					c2.6,0,4.6,1.4,4.6,3.8c0,2.1-1.7,3.8-4.9,6.1h5v2.3h-9V15.2z"/>
			</g>
			<g id="Ellipse_10-2" transform="translate(7.861 28.79)">
				<circle class="st7" cx="-360.7" cy="7" r="7"/>
				<circle class="st9" cx="-360.7" cy="7" r="5"/>
			</g>
		</g>
	</g>
	<rect id="Rectangle_1833" x="1226.3" y="658" class="st10" width="220" height="150"/>
</g>
<g id="Group_290" transform="translate(-1226 -658)" class="st0">
	<g id="Group_269" transform="translate(0 -0.21)" class="st1">
		<g class="st2">
			<path class="st3" d="M1378.2,800.2v5.8h-0.6v-6.7h0.6l4.2,5.7v-5.7h0.6v6.7h-0.6L1378.2,800.2z"/>
			<path class="st3" d="M1387.7,799.2c1.9,0,3.2,1.5,3.2,3.4s-1.3,3.4-3.2,3.4c-2,0-3.2-1.5-3.2-3.4S1385.7,799.2,1387.7,799.2z
				 M1387.7,799.7c-1.6,0-2.6,1.2-2.6,2.9c0,1.7,1,2.9,2.6,2.9c1.6,0,2.6-1.3,2.6-2.9C1390.3,801,1389.3,799.7,1387.7,799.7z"/>
			<path class="st3" d="M1391.4,799.3h0.7l2.4,6l2.4-6h0.7l-2.7,6.7h-0.7L1391.4,799.3z"/>
		</g>
		<g class="st2">
			<path class="st3" d="M1343.1,799.2c1.9,0,3.2,1.5,3.2,3.4s-1.3,3.4-3.2,3.4c-2,0-3.2-1.5-3.2-3.4S1341.2,799.2,1343.1,799.2z
				 M1343.1,799.7c-1.6,0-2.6,1.2-2.6,2.9c0,1.7,1,2.9,2.6,2.9c1.6,0,2.6-1.3,2.6-2.9C1345.8,801,1344.7,799.7,1343.1,799.7z"/>
			<path class="st3" d="M1347.5,802.7c0-2,1.5-3.4,3.4-3.4c1.1,0,1.9,0.5,2.4,1.2l-0.5,0.3c-0.4-0.6-1.1-1-2-1
				c-1.5,0-2.8,1.2-2.8,2.9c0,1.7,1.2,2.9,2.8,2.9c0.8,0,1.5-0.4,2-1l0.5,0.3c-0.6,0.7-1.4,1.2-2.4,1.2
				C1349,806.1,1347.5,804.7,1347.5,802.7z"/>
			<path class="st3" d="M1356.2,799.9h-2.2v-0.5h4.9v0.5h-2.2v6.1h-0.6V799.9z"/>
		</g>
		<g class="st2">
			<path class="st3" d="M1303.5,804.6c0.4,0.5,1.1,1,2.1,1c1.4,0,1.8-0.8,1.8-1.3c0-0.9-0.9-1.2-1.8-1.4c-1-0.3-2.2-0.6-2.2-1.8
				c0-1.1,1-1.8,2.2-1.8c1,0,1.7,0.3,2.3,0.9l-0.4,0.4c-0.5-0.6-1.2-0.8-1.9-0.8c-0.9,0-1.6,0.5-1.6,1.2c0,0.8,0.8,1,1.7,1.3
				c1.1,0.3,2.3,0.6,2.3,2c0,0.8-0.6,1.9-2.4,1.9c-1.1,0-1.9-0.4-2.4-1.1L1303.5,804.6z"/>
			<path class="st3" d="M1309.4,799.3h4.2v0.5h-3.7v2.5h3.6v0.5h-3.6v2.6h3.7v0.5h-4.2V799.3z"/>
			<path class="st3" d="M1315,799.3h2.5c1.3,0,2,0.9,2,1.9c0,1-0.7,1.9-2,1.9h-1.9v2.8h-0.6V799.3z M1317.4,799.9h-1.9v2.9h1.9
				c0.9,0,1.5-0.6,1.5-1.4C1318.9,800.4,1318.3,799.9,1317.4,799.9z"/>
		</g>
		<g class="st2">
			<path class="st3" d="M1267.2,804.4h-3.5l-0.7,1.6h-0.6l2.7-6.7h0.7l2.7,6.7h-0.6L1267.2,804.4z M1263.8,803.8h3.2l-1.6-3.9
				L1263.8,803.8z"/>
			<path class="st3" d="M1269.3,799.3h0.6v4.1c0,1.3,0.7,2.2,2,2.2c1.3,0,2-0.8,2-2.2v-4.1h0.6v4.1c0,1.6-0.9,2.7-2.6,2.7
				c-1.7,0-2.6-1-2.6-2.7V799.3z"/>
			<path class="st3" d="M1279.3,799.2c1.1,0,1.9,0.4,2.5,1.1l-0.4,0.3c-0.5-0.6-1.2-0.9-2.1-0.9c-1.6,0-2.8,1.2-2.8,2.9
				c0,1.7,1.2,2.9,2.8,2.9c0.9,0,1.6-0.4,2-0.8v-1.6h-2.5v-0.5h3.1v2.3c-0.6,0.7-1.5,1.1-2.5,1.1c-1.9,0-3.4-1.4-3.4-3.5
				S1277.4,799.2,1279.3,799.2z"/>
		</g>
		<g class="st2">
			<path class="st3" d="M1226.5,804.9c0.3,0.4,0.7,0.7,1.3,0.7c0.9,0,1.5-0.6,1.5-1.5v-4.7h0.6v4.7c0,1.4-0.9,2-2,2
				c-0.7,0-1.3-0.3-1.7-0.8L1226.5,804.9z"/>
			<path class="st3" d="M1231.5,799.3h0.6v4.1c0,1.3,0.7,2.2,2,2.2c1.3,0,2-0.8,2-2.2v-4.1h0.6v4.1c0,1.6-0.9,2.7-2.6,2.7
				c-1.7,0-2.6-1-2.6-2.7V799.3z"/>
			<path class="st3" d="M1238.4,799.3h0.6v6.1h3.2v0.5h-3.8V799.3z"/>
		</g>
		<g class="st2">
			<path class="st3" d="M1417.2,799.3h2.5c2.1,0,3.5,1.4,3.5,3.3s-1.4,3.3-3.5,3.3h-2.5V799.3z M1419.6,805c1.4,0,2.3-1,2.3-2.3
				c0-1.3-0.8-2.3-2.3-2.3h-1.3v4.6H1419.6z"/>
			<path class="st3" d="M1424.3,799.3h4.6v1h-3.4v1.7h3.3v1h-3.3v1.8h3.4v1h-4.6V799.3z"/>
			<path class="st3" d="M1429.7,802.7c0-2,1.5-3.4,3.4-3.4c1.4,0,2.2,0.7,2.7,1.5l-1,0.5c-0.3-0.5-1-1-1.7-1c-1.3,0-2.2,1-2.2,2.4
				s1,2.4,2.2,2.4c0.8,0,1.4-0.4,1.7-1l1,0.5c-0.5,0.8-1.3,1.5-2.7,1.5C1431.3,806.1,1429.7,804.7,1429.7,802.7z"/>
		</g>
		<path id="Rectangle_1858" class="st4" d="M1426.3,692L1426.3,692c2.2,0,4,1.8,4,4v83c0,2.2-1.8,4-4,4l0,0c-2.2,0-4-1.8-4-4v-83
			C1422.3,693.8,1424.1,692,1426.3,692z"/>
		<path id="Rectangle_1859" class="st4" d="M1387.3,692L1387.3,692c2.2,0,4,1.8,4,4v83c0,2.2-1.8,4-4,4l0,0c-2.2,0-4-1.8-4-4v-83
			C1383.3,693.8,1385.1,692,1387.3,692z"/>
		<path id="Rectangle_1860" class="st4" d="M1349.3,692L1349.3,692c2.2,0,4,1.8,4,4v83c0,2.2-1.8,4-4,4l0,0c-2.2,0-4-1.8-4-4v-83
			C1345.3,693.8,1347.1,692,1349.3,692z"/>
		<path id="Rectangle_1861" class="st4" d="M1311.3,692L1311.3,692c2.2,0,4,1.8,4,4v83c0,2.2-1.8,4-4,4l0,0c-2.2,0-4-1.8-4-4v-83
			C1307.3,693.8,1309.1,692,1311.3,692z"/>
		<path id="Rectangle_1862" class="st4" d="M1272.3,692L1272.3,692c2.2,0,4,1.8,4,4v83c0,2.2-1.8,4-4,4l0,0c-2.2,0-4-1.8-4-4v-83
			C1268.3,693.8,1270.1,692,1272.3,692z"/>
		<path id="Rectangle_1863" class="st4" d="M1234.3,692L1234.3,692c2.2,0,4,1.8,4,4v83c0,2.2-1.8,4-4,4l0,0c-2.2,0-4-1.8-4-4v-83
			C1230.3,693.8,1232.1,692,1234.3,692z"/>
		<path id="Rectangle_1622" class="st5" d="M1426.3,706L1426.3,706c2.2,0,4,1.8,4,4v69c0,2.2-1.8,4-4,4l0,0c-2.2,0-4-1.8-4-4v-69
			C1422.3,707.8,1424.1,706,1426.3,706z"/>
		<path id="Rectangle_1640" class="st5" d="M1234.3,747L1234.3,747c2.2,0,4,1.8,4,4v28c0,2.2-1.8,4-4,4l0,0c-2.2,0-4-1.8-4-4v-28
			C1230.3,748.8,1232.1,747,1234.3,747z"/>
		<path id="Rectangle_1637" class="st5" d="M1272.3,720L1272.3,720c2.2,0,4,1.8,4,4v55c0,2.2-1.8,4-4,4l0,0c-2.2,0-4-1.8-4-4v-55
			C1268.3,721.8,1270.1,720,1272.3,720z"/>
		<path id="Rectangle_1632" class="st5" d="M1311.3,737L1311.3,737c2.2,0,4,1.8,4,4v38c0,2.2-1.8,4-4,4l0,0c-2.2,0-4-1.8-4-4v-38
			C1307.3,738.8,1309.1,737,1311.3,737z"/>
		<path id="Rectangle_1626" class="st5" d="M1349.3,720L1349.3,720c2.2,0,4,1.8,4,4v55c0,2.2-1.8,4-4,4l0,0c-2.2,0-4-1.8-4-4v-55
			C1345.3,721.8,1347.1,720,1349.3,720z"/>
		<path id="Rectangle_1623" class="st5" d="M1387.3,699L1387.3,699c2.2,0,4,1.8,4,4v76c0,2.2-1.8,4-4,4l0,0c-2.2,0-4-1.8-4-4v-76
			C1383.3,700.8,1385.1,699,1387.3,699z"/>
		<path id="Line_Chart-3" class="st6" d="M1234.3,749.1c0,0,18.8-26.6,38.4-26.6s17.6,16.3,37.4,16.3c19.9,0,19.1-16.3,38.9-16.3
			c19.8,0,18.8-21,38.7-21c19.9,0,18.8,8.1,38.5,8.1"/>
		<g id="Details-3" transform="translate(1415.139 899.21)">
			<path id="Tag-3" class="st11" d="M25.1-211.7l-11.6,7.8c-1.2,0.8-2.8,0.8-4,0l-11.6-7.8c-1-0.7-1.6-1.8-1.6-3v-9.7
				c0-2,1.6-3.7,3.6-3.7c0,0,0,0,0,0H23c2,0,3.7,1.6,3.7,3.7v9.7C26.7-213.5,26.1-212.4,25.1-211.7z"/>
			<g class="st2">
				<path class="st8" d="M7.6-214.1c0.8,0.9,2.1,1.4,3.3,1.4c1.5,0,2.3-0.6,2.3-1.5c0-1-0.7-1.4-2.4-1.4c-0.5,0-1.3,0-1.5,0v-2.2
					c0.2,0,1,0,1.5,0c1.3,0,2.2-0.4,2.2-1.3c0-1-1-1.4-2.2-1.4c-1.2,0-2.2,0.5-3.1,1.3L6.4-221c1-1.1,2.5-1.9,4.6-1.9
					c2.8,0,4.5,1.3,4.5,3.3c0,1.5-1.3,2.5-2.6,2.7c1.2,0.1,2.8,1.1,2.8,2.9c0,2.1-1.9,3.5-4.7,3.5c-2.2,0-3.9-0.8-4.7-1.9L7.6-214.1
					z"/>
			</g>
			<g id="Ellipse_10-3" transform="translate(7.861 28.79)">
				<circle class="st11" cx="3.3" cy="-221" r="7"/>
				<circle class="st9" cx="3.3" cy="-221" r="5"/>
			</g>
		</g>
	</g>
	<rect id="Rectangle_1834" x="1226.3" y="658" class="st10" width="220" height="150"/>
</g>
<g id="Group_289" transform="translate(-1226 -658)" class="st0">
	<g id="Group_270" transform="translate(-5 -0.21)" class="st1">
		<g class="st2">
			<path class="st3" d="M1383.2,800.2v5.8h-0.6v-6.7h0.6l4.2,5.7v-5.7h0.6v6.7h-0.6L1383.2,800.2z"/>
			<path class="st3" d="M1392.7,799.2c1.9,0,3.2,1.5,3.2,3.4s-1.3,3.4-3.2,3.4c-2,0-3.2-1.5-3.2-3.4S1390.7,799.2,1392.7,799.2z
				 M1392.7,799.7c-1.6,0-2.6,1.2-2.6,2.9c0,1.7,1,2.9,2.6,2.9c1.6,0,2.6-1.3,2.6-2.9C1395.3,801,1394.3,799.7,1392.7,799.7z"/>
			<path class="st3" d="M1396.4,799.3h0.7l2.4,6l2.4-6h0.7l-2.7,6.7h-0.7L1396.4,799.3z"/>
		</g>
		<g class="st2">
			<path class="st3" d="M1348.1,799.2c1.9,0,3.2,1.5,3.2,3.4s-1.3,3.4-3.2,3.4c-2,0-3.2-1.5-3.2-3.4S1346.2,799.2,1348.1,799.2z
				 M1348.1,799.7c-1.6,0-2.6,1.2-2.6,2.9c0,1.7,1,2.9,2.6,2.9c1.6,0,2.6-1.3,2.6-2.9C1350.8,801,1349.7,799.7,1348.1,799.7z"/>
			<path class="st3" d="M1352.5,802.7c0-2,1.5-3.4,3.4-3.4c1.1,0,1.9,0.5,2.4,1.2l-0.5,0.3c-0.4-0.6-1.1-1-2-1
				c-1.5,0-2.8,1.2-2.8,2.9c0,1.7,1.2,2.9,2.8,2.9c0.8,0,1.5-0.4,2-1l0.5,0.3c-0.6,0.7-1.4,1.2-2.4,1.2
				C1354,806.1,1352.5,804.7,1352.5,802.7z"/>
			<path class="st3" d="M1361.2,799.9h-2.2v-0.5h4.9v0.5h-2.2v6.1h-0.6V799.9z"/>
		</g>
		<g class="st2">
			<path class="st3" d="M1308.5,804.6c0.4,0.5,1.1,1,2.1,1c1.4,0,1.8-0.8,1.8-1.3c0-0.9-0.9-1.2-1.8-1.4c-1-0.3-2.2-0.6-2.2-1.8
				c0-1.1,1-1.8,2.2-1.8c1,0,1.7,0.3,2.3,0.9l-0.4,0.4c-0.5-0.6-1.2-0.8-1.9-0.8c-0.9,0-1.6,0.5-1.6,1.2c0,0.8,0.8,1,1.7,1.3
				c1.1,0.3,2.3,0.6,2.3,2c0,0.8-0.6,1.9-2.4,1.9c-1.1,0-1.9-0.4-2.4-1.1L1308.5,804.6z"/>
			<path class="st3" d="M1314.4,799.3h4.2v0.5h-3.7v2.5h3.6v0.5h-3.6v2.6h3.7v0.5h-4.2V799.3z"/>
			<path class="st3" d="M1320,799.3h2.5c1.3,0,2,0.9,2,1.9c0,1-0.7,1.9-2,1.9h-1.9v2.8h-0.6V799.3z M1322.4,799.9h-1.9v2.9h1.9
				c0.9,0,1.5-0.6,1.5-1.4C1323.9,800.4,1323.3,799.9,1322.4,799.9z"/>
		</g>
		<g class="st2">
			<path class="st3" d="M1272.2,804.4h-3.5l-0.7,1.6h-0.6l2.7-6.7h0.7l2.7,6.7h-0.6L1272.2,804.4z M1268.8,803.8h3.2l-1.6-3.9
				L1268.8,803.8z"/>
			<path class="st3" d="M1274.3,799.3h0.6v4.1c0,1.3,0.7,2.2,2,2.2c1.3,0,2-0.8,2-2.2v-4.1h0.6v4.1c0,1.6-0.9,2.7-2.6,2.7
				c-1.7,0-2.6-1-2.6-2.7V799.3z"/>
			<path class="st3" d="M1284.3,799.2c1.1,0,1.9,0.4,2.5,1.1l-0.4,0.3c-0.5-0.6-1.2-0.9-2.1-0.9c-1.6,0-2.8,1.2-2.8,2.9
				c0,1.7,1.2,2.9,2.8,2.9c0.9,0,1.6-0.4,2-0.8v-1.6h-2.5v-0.5h3.1v2.3c-0.6,0.7-1.5,1.1-2.5,1.1c-1.9,0-3.4-1.4-3.4-3.5
				S1282.4,799.2,1284.3,799.2z"/>
		</g>
		<g class="st2">
			<path class="st3" d="M1231.5,804.9c0.3,0.4,0.7,0.7,1.3,0.7c0.9,0,1.5-0.6,1.5-1.5v-4.7h0.6v4.7c0,1.4-0.9,2-2,2
				c-0.7,0-1.3-0.3-1.7-0.8L1231.5,804.9z"/>
			<path class="st3" d="M1236.5,799.3h0.6v4.1c0,1.3,0.7,2.2,2,2.2c1.3,0,2-0.8,2-2.2v-4.1h0.6v4.1c0,1.6-0.9,2.7-2.6,2.7
				c-1.7,0-2.6-1-2.6-2.7V799.3z"/>
			<path class="st3" d="M1243.4,799.3h0.6v6.1h3.2v0.5h-3.8V799.3z"/>
		</g>
		<g class="st2">
			<path class="st3" d="M1422.2,799.3h2.5c2.1,0,3.5,1.4,3.5,3.3s-1.4,3.3-3.5,3.3h-2.5V799.3z M1424.6,805c1.4,0,2.3-1,2.3-2.3
				c0-1.3-0.8-2.3-2.3-2.3h-1.3v4.6H1424.6z"/>
			<path class="st3" d="M1429.3,799.3h4.6v1h-3.4v1.7h3.3v1h-3.3v1.8h3.4v1h-4.6V799.3z"/>
			<path class="st3" d="M1434.7,802.7c0-2,1.5-3.4,3.4-3.4c1.4,0,2.2,0.7,2.7,1.5l-1,0.5c-0.3-0.5-1-1-1.7-1c-1.3,0-2.2,1-2.2,2.4
				s1,2.4,2.2,2.4c0.8,0,1.4-0.4,1.7-1l1,0.5c-0.5,0.8-1.3,1.5-2.7,1.5C1436.3,806.1,1434.7,804.7,1434.7,802.7z"/>
		</g>
		<path id="Rectangle_1864" class="st4" d="M1431.3,692L1431.3,692c2.2,0,4,1.8,4,4v83c0,2.2-1.8,4-4,4l0,0c-2.2,0-4-1.8-4-4v-83
			C1427.3,693.8,1429.1,692,1431.3,692z"/>
		<path id="Rectangle_1865" class="st4" d="M1392.3,692L1392.3,692c2.2,0,4,1.8,4,4v83c0,2.2-1.8,4-4,4l0,0c-2.2,0-4-1.8-4-4v-83
			C1388.3,693.8,1390.1,692,1392.3,692z"/>
		<path id="Rectangle_1866" class="st4" d="M1354.3,692L1354.3,692c2.2,0,4,1.8,4,4v83c0,2.2-1.8,4-4,4l0,0c-2.2,0-4-1.8-4-4v-83
			C1350.3,693.8,1352.1,692,1354.3,692z"/>
		<path id="Rectangle_1867" class="st4" d="M1316.3,692L1316.3,692c2.2,0,4,1.8,4,4v83c0,2.2-1.8,4-4,4l0,0c-2.2,0-4-1.8-4-4v-83
			C1312.3,693.8,1314.1,692,1316.3,692z"/>
		<path id="Rectangle_1868" class="st4" d="M1277.3,692L1277.3,692c2.2,0,4,1.8,4,4v83c0,2.2-1.8,4-4,4l0,0c-2.2,0-4-1.8-4-4v-83
			C1273.3,693.8,1275.1,692,1277.3,692z"/>
		<path id="Rectangle_1869" class="st4" d="M1239.3,692L1239.3,692c2.2,0,4,1.8,4,4v83c0,2.2-1.8,4-4,4l0,0c-2.2,0-4-1.8-4-4v-83
			C1235.3,693.8,1237.1,692,1239.3,692z"/>
		<path id="Rectangle_1642" class="st5" d="M1431.3,713L1431.3,713c2.2,0,4,1.8,4,4v62c0,2.2-1.8,4-4,4l0,0c-2.2,0-4-1.8-4-4v-62
			C1427.3,714.8,1429.1,713,1431.3,713z"/>
		<path id="Rectangle_1656" class="st5" d="M1239.3,692L1239.3,692c2.2,0,4,1.8,4,4v83c0,2.2-1.8,4-4,4l0,0c-2.2,0-4-1.8-4-4v-83
			C1235.3,693.8,1237.1,692,1239.3,692z"/>
		<path id="Rectangle_1651" class="st5" d="M1277.3,699L1277.3,699c2.2,0,4,1.8,4,4v76c0,2.2-1.8,4-4,4l0,0c-2.2,0-4-1.8-4-4v-76
			C1273.3,700.8,1275.1,699,1277.3,699z"/>
		<path id="Rectangle_1645" class="st5" d="M1316.3,727L1316.3,727c2.2,0,4,1.8,4,4v48c0,2.2-1.8,4-4,4l0,0c-2.2,0-4-1.8-4-4v-48
			C1312.3,728.8,1314.1,727,1316.3,727z"/>
		<path id="Rectangle_1646" class="st5" d="M1354.3,713L1354.3,713c2.2,0,4,1.8,4,4v62c0,2.2-1.8,4-4,4l0,0c-2.2,0-4-1.8-4-4v-62
			C1350.3,714.8,1352.1,713,1354.3,713z"/>
		<path id="Rectangle_1643" class="st5" d="M1392.3,720L1392.3,720c2.2,0,4,1.8,4,4v55c0,2.2-1.8,4-4,4l0,0c-2.2,0-4-1.8-4-4v-55
			C1388.3,721.8,1390.1,720,1392.3,720z"/>
		<path id="Line_Chart-4" class="st6" d="M1239.5,695c0,0,18,6.4,37.7,6.4s19.1,27.8,39,27.8s18.5-14.1,38.3-14.1s18,7.7,37.9,7.7
			c19.9,0,18.5-5.2,38.1-5.2"/>
		<g id="Details-4" transform="translate(1780.139 909.21)">
			<path id="Tag-4" class="st11" d="M-334.9-211.7l-11.6,7.8c-1.2,0.8-2.8,0.8-4,0l-11.6-7.8c-1-0.7-1.6-1.8-1.6-3v-9.7
				c0-2,1.6-3.7,3.6-3.7c0,0,0,0,0,0h23c2,0,3.7,1.6,3.7,3.7v9.7C-333.3-213.5-333.9-212.4-334.9-211.7z"/>
			<g class="st2">
				<path class="st8" d="M-348-213.2h-5.7v-2l4.8-7.5h3.5v7.3h1.5v2.3h-1.5v2.5h-2.6V-213.2z M-351.2-215.5h3.2v-5L-351.2-215.5z"/>
			</g>
			<g id="Ellipse_10-4" transform="translate(7.861 28.79)">
				<circle class="st11" cx="-356.7" cy="-221" r="7"/>
				<circle class="st9" cx="-356.7" cy="-221" r="5"/>
			</g>
		</g>
	</g>
	<rect id="Rectangle_1835" x="1226.3" y="658" class="st10" width="220" height="150"/>
</g>
<g id="Group_288" transform="translate(-1226 -658)" class="st0">
	<g id="Group_271" transform="translate(0 -0.209)" class="st1">
		<g class="st2">
			<path class="st3" d="M1378.2,800.2v5.8h-0.6v-6.7h0.6l4.2,5.7v-5.7h0.6v6.7h-0.6L1378.2,800.2z"/>
			<path class="st3" d="M1387.7,799.2c1.9,0,3.2,1.5,3.2,3.4s-1.3,3.4-3.2,3.4c-2,0-3.2-1.5-3.2-3.4S1385.7,799.2,1387.7,799.2z
				 M1387.7,799.7c-1.6,0-2.6,1.2-2.6,2.9c0,1.7,1,2.9,2.6,2.9c1.6,0,2.6-1.3,2.6-2.9C1390.3,801,1389.3,799.7,1387.7,799.7z"/>
			<path class="st3" d="M1391.4,799.3h0.7l2.4,6l2.4-6h0.7l-2.7,6.7h-0.7L1391.4,799.3z"/>
		</g>
		<g class="st2">
			<path class="st3" d="M1343.1,799.2c1.9,0,3.2,1.5,3.2,3.4s-1.3,3.4-3.2,3.4c-2,0-3.2-1.5-3.2-3.4S1341.2,799.2,1343.1,799.2z
				 M1343.1,799.7c-1.6,0-2.6,1.2-2.6,2.9c0,1.7,1,2.9,2.6,2.9c1.6,0,2.6-1.3,2.6-2.9C1345.8,801,1344.7,799.7,1343.1,799.7z"/>
			<path class="st3" d="M1347.5,802.7c0-2,1.5-3.4,3.4-3.4c1.1,0,1.9,0.5,2.4,1.2l-0.5,0.3c-0.4-0.6-1.1-1-2-1
				c-1.5,0-2.8,1.2-2.8,2.9c0,1.7,1.2,2.9,2.8,2.9c0.8,0,1.5-0.4,2-1l0.5,0.3c-0.6,0.7-1.4,1.2-2.4,1.2
				C1349,806.1,1347.5,804.7,1347.5,802.7z"/>
			<path class="st3" d="M1356.2,799.9h-2.2v-0.5h4.9v0.5h-2.2v6.1h-0.6V799.9z"/>
		</g>
		<g class="st2">
			<path class="st3" d="M1303.5,804.6c0.4,0.5,1.1,1,2.1,1c1.4,0,1.8-0.8,1.8-1.3c0-0.9-0.9-1.2-1.8-1.4c-1-0.3-2.2-0.6-2.2-1.8
				c0-1.1,1-1.8,2.2-1.8c1,0,1.7,0.3,2.3,0.9l-0.4,0.4c-0.5-0.6-1.2-0.8-1.9-0.8c-0.9,0-1.6,0.5-1.6,1.2c0,0.8,0.8,1,1.7,1.3
				c1.1,0.3,2.3,0.6,2.3,2c0,0.8-0.6,1.9-2.4,1.9c-1.1,0-1.9-0.4-2.4-1.1L1303.5,804.6z"/>
			<path class="st3" d="M1309.4,799.3h4.2v0.5h-3.7v2.5h3.6v0.5h-3.6v2.6h3.7v0.5h-4.2V799.3z"/>
			<path class="st3" d="M1315,799.3h2.5c1.3,0,2,0.9,2,1.9c0,1-0.7,1.9-2,1.9h-1.9v2.8h-0.6V799.3z M1317.4,799.9h-1.9v2.9h1.9
				c0.9,0,1.5-0.6,1.5-1.4C1318.9,800.4,1318.3,799.9,1317.4,799.9z"/>
		</g>
		<g class="st2">
			<path class="st3" d="M1267.2,804.4h-3.5l-0.7,1.6h-0.6l2.7-6.7h0.7l2.7,6.7h-0.6L1267.2,804.4z M1263.8,803.8h3.2l-1.6-3.9
				L1263.8,803.8z"/>
			<path class="st3" d="M1269.3,799.3h0.6v4.1c0,1.3,0.7,2.2,2,2.2c1.3,0,2-0.8,2-2.2v-4.1h0.6v4.1c0,1.6-0.9,2.7-2.6,2.7
				c-1.7,0-2.6-1-2.6-2.7V799.3z"/>
			<path class="st3" d="M1279.3,799.2c1.1,0,1.9,0.4,2.5,1.1l-0.4,0.3c-0.5-0.6-1.2-0.9-2.1-0.9c-1.6,0-2.8,1.2-2.8,2.9
				c0,1.7,1.2,2.9,2.8,2.9c0.9,0,1.6-0.4,2-0.8v-1.6h-2.5v-0.5h3.1v2.3c-0.6,0.7-1.5,1.1-2.5,1.1c-1.9,0-3.4-1.4-3.4-3.5
				S1277.4,799.2,1279.3,799.2z"/>
		</g>
		<g class="st2">
			<path class="st3" d="M1226.5,804.9c0.3,0.4,0.7,0.7,1.3,0.7c0.9,0,1.5-0.6,1.5-1.5v-4.7h0.6v4.7c0,1.4-0.9,2-2,2
				c-0.7,0-1.3-0.3-1.7-0.8L1226.5,804.9z"/>
			<path class="st3" d="M1231.5,799.3h0.6v4.1c0,1.3,0.7,2.2,2,2.2c1.3,0,2-0.8,2-2.2v-4.1h0.6v4.1c0,1.6-0.9,2.7-2.6,2.7
				c-1.7,0-2.6-1-2.6-2.7V799.3z"/>
			<path class="st3" d="M1238.4,799.3h0.6v6.1h3.2v0.5h-3.8V799.3z"/>
		</g>
		<g class="st2">
			<path class="st3" d="M1417.2,799.3h2.5c2.1,0,3.5,1.4,3.5,3.3s-1.4,3.3-3.5,3.3h-2.5V799.3z M1419.6,805c1.4,0,2.3-1,2.3-2.3
				c0-1.3-0.8-2.3-2.3-2.3h-1.3v4.6H1419.6z"/>
			<path class="st3" d="M1424.3,799.3h4.6v1h-3.4v1.7h3.3v1h-3.3v1.8h3.4v1h-4.6V799.3z"/>
			<path class="st3" d="M1429.7,802.7c0-2,1.5-3.4,3.4-3.4c1.4,0,2.2,0.7,2.7,1.5l-1,0.5c-0.3-0.5-1-1-1.7-1c-1.3,0-2.2,1-2.2,2.4
				s1,2.4,2.2,2.4c0.8,0,1.4-0.4,1.7-1l1,0.5c-0.5,0.8-1.3,1.5-2.7,1.5C1431.3,806.1,1429.7,804.7,1429.7,802.7z"/>
		</g>
		<path id="Rectangle_1870" class="st4" d="M1426.3,692L1426.3,692c2.2,0,4,1.8,4,4v83c0,2.2-1.8,4-4,4l0,0c-2.2,0-4-1.8-4-4v-83
			C1422.3,693.8,1424.1,692,1426.3,692z"/>
		<path id="Rectangle_1871" class="st4" d="M1387.3,692L1387.3,692c2.2,0,4,1.8,4,4v83c0,2.2-1.8,4-4,4l0,0c-2.2,0-4-1.8-4-4v-83
			C1383.3,693.8,1385.1,692,1387.3,692z"/>
		<path id="Rectangle_1872" class="st4" d="M1349.3,692L1349.3,692c2.2,0,4,1.8,4,4v83c0,2.2-1.8,4-4,4l0,0c-2.2,0-4-1.8-4-4v-83
			C1345.3,693.8,1347.1,692,1349.3,692z"/>
		<path id="Rectangle_1873" class="st4" d="M1311.3,692L1311.3,692c2.2,0,4,1.8,4,4v83c0,2.2-1.8,4-4,4l0,0c-2.2,0-4-1.8-4-4v-83
			C1307.3,693.8,1309.1,692,1311.3,692z"/>
		<path id="Rectangle_1874" class="st4" d="M1272.3,692L1272.3,692c2.2,0,4,1.8,4,4v83c0,2.2-1.8,4-4,4l0,0c-2.2,0-4-1.8-4-4v-83
			C1268.3,693.8,1270.1,692,1272.3,692z"/>
		<path id="Rectangle_1875" class="st4" d="M1234.3,692L1234.3,692c2.2,0,4,1.8,4,4v83c0,2.2-1.8,4-4,4l0,0c-2.2,0-4-1.8-4-4v-83
			C1230.3,693.8,1232.1,692,1234.3,692z"/>
		<path id="Rectangle_1661" class="st5" d="M1426.3,720L1426.3,720c2.2,0,4,1.8,4,4v55c0,2.2-1.8,4-4,4l0,0c-2.2,0-4-1.8-4-4v-55
			C1422.3,721.8,1424.1,720,1426.3,720z"/>
		<path id="Rectangle_1679" class="st5" d="M1234.3,713L1234.3,713c2.2,0,4,1.8,4,4v62c0,2.2-1.8,4-4,4l0,0c-2.2,0-4-1.8-4-4v-62
			C1230.3,714.8,1232.1,713,1234.3,713z"/>
		<path id="Rectangle_1678" class="st5" d="M1272.3,720L1272.3,720c2.2,0,4,1.8,4,4v55c0,2.2-1.8,4-4,4l0,0c-2.2,0-4-1.8-4-4v-55
			C1268.3,721.8,1270.1,720,1272.3,720z"/>
		<path id="Rectangle_1674" class="st5" d="M1311.3,734L1311.3,734c2.2,0,4,1.8,4,4v41c0,2.2-1.8,4-4,4l0,0c-2.2,0-4-1.8-4-4v-41
			C1307.3,735.8,1309.1,734,1311.3,734z"/>
		<path id="Rectangle_1669" class="st5" d="M1349.3,734L1349.3,734c2.2,0,4,1.8,4,4v41c0,2.2-1.8,4-4,4l0,0c-2.2,0-4-1.8-4-4v-41
			C1345.3,735.8,1347.1,734,1349.3,734z"/>
		<path id="Rectangle_1662" class="st5" d="M1387.3,706L1387.3,706c2.2,0,4,1.8,4,4v69c0,2.2-1.8,4-4,4l0,0c-2.2,0-4-1.8-4-4v-69
			C1383.3,707.8,1385.1,706,1387.3,706z"/>
		<path id="Line_Chart-5" class="st6" d="M1234.2,715.1c0,0,19,7.3,38.6,7.3c19.6,0,19,14.3,38.9,14.3h37.3
			c19.8,0,18.7-28.6,38.6-28.6c19.9,0,17.6,16.3,37.3,16.3"/>
		<g id="Details-5" transform="translate(1416.139 1159.209)">
			<path id="Tag-5" class="st11" d="M24.1-454.7l-11.6,7.8c-1.2,0.8-2.8,0.8-4,0l-11.6-7.8c-1-0.7-1.6-1.8-1.6-3v-9.7
				c0-2,1.6-3.7,3.6-3.7c0,0,0,0,0,0H22c2,0,3.7,1.6,3.7,3.7v9.7C25.7-456.5,25.1-455.4,24.1-454.7z"/>
			<g class="st2">
				<path class="st8" d="M7-457.1c0.8,0.8,1.9,1.3,3.2,1.3c1.4,0,2.2-0.8,2.2-1.8c0-1.1-0.8-1.8-2.2-1.8c-1,0-1.8,0.3-2.5,1L6-458.9
					v-6.9h8.2v2.2H8.5v3c0.6-0.6,1.6-1,2.7-1c2,0,3.9,1.5,3.9,3.9c0,2.5-1.9,4.1-4.8,4.1c-2.1,0-3.6-0.7-4.6-1.8L7-457.1z"/>
			</g>
			<g id="Ellipse_10-5" transform="translate(7.861 28.79)">
				<circle class="st11" cx="2.3" cy="-464" r="7"/>
				<circle class="st9" cx="2.3" cy="-464" r="5"/>
			</g>
		</g>
	</g>
	<rect id="Rectangle_1836" x="1226.3" y="658" class="st10" width="220" height="150"/>
</g>
<g id="Group_284" transform="translate(-1226 -658)" class="st0">
	<g id="Group_273" transform="translate(-5 -0.209)" class="st1">
		<g class="st2">
			<path class="st3" d="M1383.2,800.2v5.8h-0.6v-6.7h0.6l4.2,5.7v-5.7h0.6v6.7h-0.6L1383.2,800.2z"/>
			<path class="st3" d="M1392.7,799.2c1.9,0,3.2,1.5,3.2,3.4s-1.3,3.4-3.2,3.4c-2,0-3.2-1.5-3.2-3.4S1390.7,799.2,1392.7,799.2z
				 M1392.7,799.7c-1.6,0-2.6,1.2-2.6,2.9c0,1.7,1,2.9,2.6,2.9c1.6,0,2.6-1.3,2.6-2.9C1395.3,801,1394.3,799.7,1392.7,799.7z"/>
			<path class="st3" d="M1396.4,799.3h0.7l2.4,6l2.4-6h0.7l-2.7,6.7h-0.7L1396.4,799.3z"/>
		</g>
		<g class="st2">
			<path class="st3" d="M1348.1,799.2c1.9,0,3.2,1.5,3.2,3.4s-1.3,3.4-3.2,3.4c-2,0-3.2-1.5-3.2-3.4S1346.2,799.2,1348.1,799.2z
				 M1348.1,799.7c-1.6,0-2.6,1.2-2.6,2.9c0,1.7,1,2.9,2.6,2.9c1.6,0,2.6-1.3,2.6-2.9C1350.8,801,1349.7,799.7,1348.1,799.7z"/>
			<path class="st3" d="M1352.5,802.7c0-2,1.5-3.4,3.4-3.4c1.1,0,1.9,0.5,2.4,1.2l-0.5,0.3c-0.4-0.6-1.1-1-2-1
				c-1.5,0-2.8,1.2-2.8,2.9c0,1.7,1.2,2.9,2.8,2.9c0.8,0,1.5-0.4,2-1l0.5,0.3c-0.6,0.7-1.4,1.2-2.4,1.2
				C1354,806.1,1352.5,804.7,1352.5,802.7z"/>
			<path class="st3" d="M1361.2,799.9h-2.2v-0.5h4.9v0.5h-2.2v6.1h-0.6V799.9z"/>
		</g>
		<g class="st2">
			<path class="st3" d="M1308.5,804.6c0.4,0.5,1.1,1,2.1,1c1.4,0,1.8-0.8,1.8-1.3c0-0.9-0.9-1.2-1.8-1.4c-1-0.3-2.2-0.6-2.2-1.8
				c0-1.1,1-1.8,2.2-1.8c1,0,1.7,0.3,2.3,0.9l-0.4,0.4c-0.5-0.6-1.2-0.8-1.9-0.8c-0.9,0-1.6,0.5-1.6,1.2c0,0.8,0.8,1,1.7,1.3
				c1.1,0.3,2.3,0.6,2.3,2c0,0.8-0.6,1.9-2.4,1.9c-1.1,0-1.9-0.4-2.4-1.1L1308.5,804.6z"/>
			<path class="st3" d="M1314.4,799.3h4.2v0.5h-3.7v2.5h3.6v0.5h-3.6v2.6h3.7v0.5h-4.2V799.3z"/>
			<path class="st3" d="M1320,799.3h2.5c1.3,0,2,0.9,2,1.9c0,1-0.7,1.9-2,1.9h-1.9v2.8h-0.6V799.3z M1322.4,799.9h-1.9v2.9h1.9
				c0.9,0,1.5-0.6,1.5-1.4C1323.9,800.4,1323.3,799.9,1322.4,799.9z"/>
		</g>
		<g class="st2">
			<path class="st3" d="M1272.2,804.4h-3.5l-0.7,1.6h-0.6l2.7-6.7h0.7l2.7,6.7h-0.6L1272.2,804.4z M1268.8,803.8h3.2l-1.6-3.9
				L1268.8,803.8z"/>
			<path class="st3" d="M1274.3,799.3h0.6v4.1c0,1.3,0.7,2.2,2,2.2c1.3,0,2-0.8,2-2.2v-4.1h0.6v4.1c0,1.6-0.9,2.7-2.6,2.7
				c-1.7,0-2.6-1-2.6-2.7V799.3z"/>
			<path class="st3" d="M1284.3,799.2c1.1,0,1.9,0.4,2.5,1.1l-0.4,0.3c-0.5-0.6-1.2-0.9-2.1-0.9c-1.6,0-2.8,1.2-2.8,2.9
				c0,1.7,1.2,2.9,2.8,2.9c0.9,0,1.6-0.4,2-0.8v-1.6h-2.5v-0.5h3.1v2.3c-0.6,0.7-1.5,1.1-2.5,1.1c-1.9,0-3.4-1.4-3.4-3.5
				S1282.4,799.2,1284.3,799.2z"/>
		</g>
		<g class="st2">
			<path class="st3" d="M1231.5,804.9c0.3,0.4,0.7,0.7,1.3,0.7c0.9,0,1.5-0.6,1.5-1.5v-4.7h0.6v4.7c0,1.4-0.9,2-2,2
				c-0.7,0-1.3-0.3-1.7-0.8L1231.5,804.9z"/>
			<path class="st3" d="M1236.5,799.3h0.6v4.1c0,1.3,0.7,2.2,2,2.2c1.3,0,2-0.8,2-2.2v-4.1h0.6v4.1c0,1.6-0.9,2.7-2.6,2.7
				c-1.7,0-2.6-1-2.6-2.7V799.3z"/>
			<path class="st3" d="M1243.4,799.3h0.6v6.1h3.2v0.5h-3.8V799.3z"/>
		</g>
		<g class="st2">
			<path class="st3" d="M1422.2,799.3h2.5c2.1,0,3.5,1.4,3.5,3.3s-1.4,3.3-3.5,3.3h-2.5V799.3z M1424.6,805c1.4,0,2.3-1,2.3-2.3
				c0-1.3-0.8-2.3-2.3-2.3h-1.3v4.6H1424.6z"/>
			<path class="st3" d="M1429.3,799.3h4.6v1h-3.4v1.7h3.3v1h-3.3v1.8h3.4v1h-4.6V799.3z"/>
			<path class="st3" d="M1434.7,802.7c0-2,1.5-3.4,3.4-3.4c1.4,0,2.2,0.7,2.7,1.5l-1,0.5c-0.3-0.5-1-1-1.7-1c-1.3,0-2.2,1-2.2,2.4
				s1,2.4,2.2,2.4c0.8,0,1.4-0.4,1.7-1l1,0.5c-0.5,0.8-1.3,1.5-2.7,1.5C1436.3,806.1,1434.7,804.7,1434.7,802.7z"/>
		</g>
		<path id="Rectangle_1882" class="st4" d="M1431.3,692L1431.3,692c2.2,0,4,1.8,4,4v83c0,2.2-1.8,4-4,4l0,0c-2.2,0-4-1.8-4-4v-83
			C1427.3,693.8,1429.1,692,1431.3,692z"/>
		<path id="Rectangle_1883" class="st4" d="M1392.3,692L1392.3,692c2.2,0,4,1.8,4,4v83c0,2.2-1.8,4-4,4l0,0c-2.2,0-4-1.8-4-4v-83
			C1388.3,693.8,1390.1,692,1392.3,692z"/>
		<path id="Rectangle_1884" class="st4" d="M1354.3,692L1354.3,692c2.2,0,4,1.8,4,4v83c0,2.2-1.8,4-4,4l0,0c-2.2,0-4-1.8-4-4v-83
			C1350.3,693.8,1352.1,692,1354.3,692z"/>
		<path id="Rectangle_1885" class="st4" d="M1316.3,692L1316.3,692c2.2,0,4,1.8,4,4v83c0,2.2-1.8,4-4,4l0,0c-2.2,0-4-1.8-4-4v-83
			C1312.3,693.8,1314.1,692,1316.3,692z"/>
		<path id="Rectangle_1886" class="st4" d="M1277.3,692L1277.3,692c2.2,0,4,1.8,4,4v83c0,2.2-1.8,4-4,4l0,0c-2.2,0-4-1.8-4-4v-83
			C1273.3,693.8,1275.1,692,1277.3,692z"/>
		<path id="Rectangle_1887" class="st4" d="M1239.3,692L1239.3,692c2.2,0,4,1.8,4,4v83c0,2.2-1.8,4-4,4l0,0c-2.2,0-4-1.8-4-4v-83
			C1235.3,693.8,1237.1,692,1239.3,692z"/>
		<path id="Rectangle_1817" class="st5" d="M1430.8,776h1c1.9,0,3.5,1.6,3.5,3.5l0,0c0,1.9-1.6,3.5-3.5,3.5h-1
			c-1.9,0-3.5-1.6-3.5-3.5l0,0C1427.3,777.6,1428.9,776,1430.8,776z"/>
		<path id="Rectangle_1814" class="st5" d="M1239.3,748L1239.3,748c2.2,0,4,1.8,4,4v27c0,2.2-1.8,4-4,4l0,0c-2.2,0-4-1.8-4-4v-27
			C1235.3,749.8,1237.1,748,1239.3,748z"/>
		<path id="Rectangle_1813" class="st5" d="M1276.8,776h1c1.9,0,3.5,1.6,3.5,3.5l0,0c0,1.9-1.6,3.5-3.5,3.5h-1
			c-1.9,0-3.5-1.6-3.5-3.5l0,0C1273.3,777.6,1274.9,776,1276.8,776z"/>
		<path id="Rectangle_1815" class="st5" d="M1315.8,776h1c1.9,0,3.5,1.6,3.5,3.5l0,0c0,1.9-1.6,3.5-3.5,3.5h-1
			c-1.9,0-3.5-1.6-3.5-3.5l0,0C1312.3,777.6,1313.9,776,1315.8,776z"/>
		<path id="Rectangle_1816" class="st5" d="M1354.3,762L1354.3,762c2.2,0,4,1.8,4,4v13c0,2.2-1.8,4-4,4l0,0c-2.2,0-4-1.8-4-4v-13
			C1350.3,763.8,1352.1,762,1354.3,762z"/>
		<path id="Rectangle_1818" class="st5" d="M1392.3,769L1392.3,769c2.2,0,4,1.8,4,4v6c0,2.2-1.8,4-4,4l0,0c-2.2,0-4-1.8-4-4v-6
			C1388.3,770.8,1390.1,769,1392.3,769z"/>
		<path id="Line_Chart-7" class="st6" d="M1239.3,750.3c0,0,18.5,28.6,38.1,28.6h39.1c19.9,0,18-13.9,37.9-13.9
			c19.8,0,18.4,6.3,38.2,6.3c19.9,0,18.9,8.8,38.6,8.8"/>
		<g id="Details-7" transform="translate(2145.139 1210.209)">
			<path id="Tag-7" class="st12" d="M-699.9-449.7l-11.6,7.8c-1.2,0.8-2.8,0.8-4,0l-11.6-7.8c-1-0.7-1.6-1.8-1.6-3v-9.7
				c0-2,1.6-3.7,3.6-3.7c0,0,0,0,0,0h23c2,0,3.7,1.6,3.7,3.7v9.7C-698.3-451.5-698.9-450.4-699.9-449.7z"/>
			<g class="st2">
				<path class="st8" d="M-719.1-457.5l-2,2l-1.5-1.5l3.8-3.8h2.2v12h-2.6V-457.5z"/>
				<path class="st8" d="M-713.7-452.1c0.8,0.9,2.1,1.4,3.3,1.4c1.5,0,2.3-0.6,2.3-1.5c0-1-0.7-1.4-2.4-1.4c-0.5,0-1.3,0-1.5,0v-2.2
					c0.2,0,1,0,1.5,0c1.3,0,2.2-0.4,2.2-1.3c0-1-1-1.4-2.2-1.4c-1.2,0-2.2,0.5-3.1,1.3l-1.3-1.6c1-1.1,2.5-1.9,4.6-1.9
					c2.8,0,4.5,1.3,4.5,3.3c0,1.5-1.3,2.5-2.6,2.7c1.2,0.1,2.8,1.1,2.8,2.9c0,2.1-1.9,3.5-4.7,3.5c-2.2,0-3.9-0.8-4.7-1.9
					L-713.7-452.1z"/>
			</g>
			<g id="Ellipse_10-7" transform="translate(7.861 28.79)">
				<circle class="st12" cx="-721.7" cy="-459" r="7"/>
				<circle class="st9" cx="-721.7" cy="-459" r="5"/>
			</g>
		</g>
	</g>
	<rect id="Rectangle_1838" x="1226.3" y="658" class="st10" width="220" height="150"/>
</g>
<g id="Group_287" transform="translate(-1226 -658)">
	<g id="Group_274" transform="translate(0 -0.209)">
		<g class="st2">
			<path class="st3" d="M1378.2,800.2v5.8h-0.6v-6.7h0.6l4.2,5.7v-5.7h0.6v6.7h-0.6L1378.2,800.2z"/>
			<path class="st3" d="M1387.7,799.2c1.9,0,3.2,1.5,3.2,3.4s-1.3,3.4-3.2,3.4c-2,0-3.2-1.5-3.2-3.4S1385.7,799.2,1387.7,799.2z
				 M1387.7,799.7c-1.6,0-2.6,1.2-2.6,2.9c0,1.7,1,2.9,2.6,2.9c1.6,0,2.6-1.3,2.6-2.9C1390.3,801,1389.3,799.7,1387.7,799.7z"/>
			<path class="st3" d="M1391.4,799.3h0.7l2.4,6l2.4-6h0.7l-2.7,6.7h-0.7L1391.4,799.3z"/>
		</g>
		<g class="st2">
			<path class="st3" d="M1343.1,799.2c1.9,0,3.2,1.5,3.2,3.4s-1.3,3.4-3.2,3.4c-2,0-3.2-1.5-3.2-3.4S1341.2,799.2,1343.1,799.2z
				 M1343.1,799.7c-1.6,0-2.6,1.2-2.6,2.9c0,1.7,1,2.9,2.6,2.9c1.6,0,2.6-1.3,2.6-2.9C1345.8,801,1344.7,799.7,1343.1,799.7z"/>
			<path class="st3" d="M1347.5,802.7c0-2,1.5-3.4,3.4-3.4c1.1,0,1.9,0.5,2.4,1.2l-0.5,0.3c-0.4-0.6-1.1-1-2-1
				c-1.5,0-2.8,1.2-2.8,2.9c0,1.7,1.2,2.9,2.8,2.9c0.8,0,1.5-0.4,2-1l0.5,0.3c-0.6,0.7-1.4,1.2-2.4,1.2
				C1349,806.1,1347.5,804.7,1347.5,802.7z"/>
			<path class="st3" d="M1356.2,799.9h-2.2v-0.5h4.9v0.5h-2.2v6.1h-0.6V799.9z"/>
		</g>
		<g class="st2">
			<path class="st3" d="M1303.5,804.6c0.4,0.5,1.1,1,2.1,1c1.4,0,1.8-0.8,1.8-1.3c0-0.9-0.9-1.2-1.8-1.4c-1-0.3-2.2-0.6-2.2-1.8
				c0-1.1,1-1.8,2.2-1.8c1,0,1.7,0.3,2.3,0.9l-0.4,0.4c-0.5-0.6-1.2-0.8-1.9-0.8c-0.9,0-1.6,0.5-1.6,1.2c0,0.8,0.8,1,1.7,1.3
				c1.1,0.3,2.3,0.6,2.3,2c0,0.8-0.6,1.9-2.4,1.9c-1.1,0-1.9-0.4-2.4-1.1L1303.5,804.6z"/>
			<path class="st3" d="M1309.4,799.3h4.2v0.5h-3.7v2.5h3.6v0.5h-3.6v2.6h3.7v0.5h-4.2V799.3z"/>
			<path class="st3" d="M1315,799.3h2.5c1.3,0,2,0.9,2,1.9c0,1-0.7,1.9-2,1.9h-1.9v2.8h-0.6V799.3z M1317.4,799.9h-1.9v2.9h1.9
				c0.9,0,1.5-0.6,1.5-1.4C1318.9,800.4,1318.3,799.9,1317.4,799.9z"/>
		</g>
		<g class="st2">
			<path class="st3" d="M1267.2,804.4h-3.5l-0.7,1.6h-0.6l2.7-6.7h0.7l2.7,6.7h-0.6L1267.2,804.4z M1263.8,803.8h3.2l-1.6-3.9
				L1263.8,803.8z"/>
			<path class="st3" d="M1269.3,799.3h0.6v4.1c0,1.3,0.7,2.2,2,2.2c1.3,0,2-0.8,2-2.2v-4.1h0.6v4.1c0,1.6-0.9,2.7-2.6,2.7
				c-1.7,0-2.6-1-2.6-2.7V799.3z"/>
			<path class="st3" d="M1279.3,799.2c1.1,0,1.9,0.4,2.5,1.1l-0.4,0.3c-0.5-0.6-1.2-0.9-2.1-0.9c-1.6,0-2.8,1.2-2.8,2.9
				c0,1.7,1.2,2.9,2.8,2.9c0.9,0,1.6-0.4,2-0.8v-1.6h-2.5v-0.5h3.1v2.3c-0.6,0.7-1.5,1.1-2.5,1.1c-1.9,0-3.4-1.4-3.4-3.5
				S1277.4,799.2,1279.3,799.2z"/>
		</g>
		<g class="st2">
			<path class="st3" d="M1226.5,804.9c0.3,0.4,0.7,0.7,1.3,0.7c0.9,0,1.5-0.6,1.5-1.5v-4.7h0.6v4.7c0,1.4-0.9,2-2,2
				c-0.7,0-1.3-0.3-1.7-0.8L1226.5,804.9z"/>
			<path class="st3" d="M1231.5,799.3h0.6v4.1c0,1.3,0.7,2.2,2,2.2c1.3,0,2-0.8,2-2.2v-4.1h0.6v4.1c0,1.6-0.9,2.7-2.6,2.7
				c-1.7,0-2.6-1-2.6-2.7V799.3z"/>
			<path class="st3" d="M1238.4,799.3h0.6v6.1h3.2v0.5h-3.8V799.3z"/>
		</g>
		<g class="st2">
			<path class="st3" d="M1417.2,799.3h2.5c2.1,0,3.5,1.4,3.5,3.3s-1.4,3.3-3.5,3.3h-2.5V799.3z M1419.6,805c1.4,0,2.3-1,2.3-2.3
				c0-1.3-0.8-2.3-2.3-2.3h-1.3v4.6H1419.6z"/>
			<path class="st3" d="M1424.3,799.3h4.6v1h-3.4v1.7h3.3v1h-3.3v1.8h3.4v1h-4.6V799.3z"/>
			<path class="st3" d="M1429.7,802.7c0-2,1.5-3.4,3.4-3.4c1.4,0,2.2,0.7,2.7,1.5l-1,0.5c-0.3-0.5-1-1-1.7-1c-1.3,0-2.2,1-2.2,2.4
				s1,2.4,2.2,2.4c0.8,0,1.4-0.4,1.7-1l1,0.5c-0.5,0.8-1.3,1.5-2.7,1.5C1431.3,806.1,1429.7,804.7,1429.7,802.7z"/>
		</g>
		<path id="Rectangle_1888" class="st4" d="M1426.3,692L1426.3,692c2.2,0,4,1.8,4,4v83c0,2.2-1.8,4-4,4l0,0c-2.2,0-4-1.8-4-4v-83
			C1422.3,693.8,1424.1,692,1426.3,692z"/>
		<path id="Rectangle_1889" class="st4" d="M1387.3,692L1387.3,692c2.2,0,4,1.8,4,4v83c0,2.2-1.8,4-4,4l0,0c-2.2,0-4-1.8-4-4v-83
			C1383.3,693.8,1385.1,692,1387.3,692z"/>
		<path id="Rectangle_1890" class="st4" d="M1349.3,692L1349.3,692c2.2,0,4,1.8,4,4v83c0,2.2-1.8,4-4,4l0,0c-2.2,0-4-1.8-4-4v-83
			C1345.3,693.8,1347.1,692,1349.3,692z"/>
		<path id="Rectangle_1891" class="st4" d="M1311.3,692L1311.3,692c2.2,0,4,1.8,4,4v83c0,2.2-1.8,4-4,4l0,0c-2.2,0-4-1.8-4-4v-83
			C1307.3,693.8,1309.1,692,1311.3,692z"/>
		<path id="Rectangle_1892" class="st4" d="M1272.3,692L1272.3,692c2.2,0,4,1.8,4,4v83c0,2.2-1.8,4-4,4l0,0c-2.2,0-4-1.8-4-4v-83
			C1268.3,693.8,1270.1,692,1272.3,692z"/>
		<path id="Rectangle_1893" class="st4" d="M1234.3,692L1234.3,692c2.2,0,4,1.8,4,4v83c0,2.2-1.8,4-4,4l0,0c-2.2,0-4-1.8-4-4v-83
			C1230.3,693.8,1232.1,692,1234.3,692z"/>
		<path id="Rectangle_1718" class="st5" d="M1426.3,727L1426.3,727c2.2,0,4,1.8,4,4v48c0,2.2-1.8,4-4,4l0,0c-2.2,0-4-1.8-4-4v-48
			C1422.3,728.8,1424.1,727,1426.3,727z"/>
		<path id="Rectangle_1736" class="st5" d="M1234.3,755L1234.3,755c2.2,0,4,1.8,4,4v20c0,2.2-1.8,4-4,4l0,0c-2.2,0-4-1.8-4-4v-20
			C1230.3,756.8,1232.1,755,1234.3,755z"/>
		<path id="Rectangle_1735" class="st5" d="M1272.3,734L1272.3,734c2.2,0,4,1.8,4,4v41c0,2.2-1.8,4-4,4l0,0c-2.2,0-4-1.8-4-4v-41
			C1268.3,735.8,1270.1,734,1272.3,734z"/>
		<path id="Rectangle_1734" class="st5" d="M1311.3,699L1311.3,699c2.2,0,4,1.8,4,4v76c0,2.2-1.8,4-4,4l0,0c-2.2,0-4-1.8-4-4v-76
			C1307.3,700.8,1309.1,699,1311.3,699z"/>
		<path id="Rectangle_1733" class="st5" d="M1349.3,713L1349.3,713c2.2,0,4,1.8,4,4v62c0,2.2-1.8,4-4,4l0,0c-2.2,0-4-1.8-4-4v-62
			C1345.3,714.8,1347.1,713,1349.3,713z"/>
		<path id="Rectangle_1732" class="st5" d="M1387.3,729L1387.3,729c2.2,0,4,1.8,4,4v46c0,2.2-1.8,4-4,4l0,0c-2.2,0-4-1.8-4-4v-46
			C1383.3,730.8,1385.1,729,1387.3,729z"/>
		<path id="Line_Chart-8" class="st6" d="M1234.4,758.1c0,0,18.2-21.3,37.8-21.3c19.6,0,19-35.5,38.9-35.5
			c19.9,0,18.2,13.6,38.1,13.6c19.8,0,18.8,16.5,38.6,16.5h38.3"/>
		<g id="Details-8" transform="translate(1416.139 1390.209)">
			<path id="Tag-8" class="st11" d="M24.1-678.7l-11.6,7.8c-1.2,0.8-2.8,0.8-4,0l-11.6-7.8c-1-0.7-1.6-1.8-1.6-3v-9.7
				c0-2,1.6-3.7,3.6-3.7c0,0,0,0,0,0H22c2,0,3.7,1.6,3.7,3.7v9.7C25.7-680.5,25.1-679.4,24.1-678.7z"/>
			<g class="st2">
				<path class="st8" d="M11.8-687.5h-6v-2.3h9v1.8l-4.5,10.2H7.5L11.8-687.5z"/>
			</g>
			<g id="Ellipse_10-8" transform="translate(7.861 28.79)">
				<circle class="st11" cx="2.3" cy="-688" r="7"/>
				<circle class="st9" cx="2.3" cy="-688" r="5"/>
			</g>
		</g>
	</g>
	<rect id="Rectangle_1839" x="1226.3" y="658" class="st13" width="220" height="150"/>
</g>
<g id="Group_283" transform="translate(-1226 -658)" class="st0">
	<g id="Group_275" transform="translate(-5 -0.209)" class="st1">
		<g class="st2">
			<path class="st3" d="M2386.5,1461.6v5.8h-0.6v-6.7h0.6l4.2,5.7v-5.7h0.6v6.7h-0.6L2386.5,1461.6z"/>
			<path class="st3" d="M2395.9,1460.6c1.9,0,3.2,1.5,3.2,3.4s-1.3,3.4-3.2,3.4c-2,0-3.2-1.5-3.2-3.4S2394,1460.6,2395.9,1460.6z
				 M2395.9,1461.1c-1.6,0-2.6,1.2-2.6,2.9c0,1.7,1,2.9,2.6,2.9c1.6,0,2.6-1.3,2.6-2.9C2398.6,1462.3,2397.5,1461.1,2395.9,1461.1z"
				/>
			<path class="st3" d="M2399.7,1460.7h0.7l2.4,6l2.4-6h0.7l-2.7,6.7h-0.7L2399.7,1460.7z"/>
		</g>
		<g class="st2">
			<path class="st3" d="M2351.4,1460.6c1.9,0,3.2,1.5,3.2,3.4s-1.3,3.4-3.2,3.4c-2,0-3.2-1.5-3.2-3.4S2349.4,1460.6,2351.4,1460.6z
				 M2351.4,1461.1c-1.6,0-2.6,1.2-2.6,2.9c0,1.7,1,2.9,2.6,2.9c1.6,0,2.6-1.3,2.6-2.9C2354,1462.3,2353,1461.1,2351.4,1461.1z"/>
			<path class="st3" d="M2355.8,1464c0-2,1.5-3.4,3.4-3.4c1.1,0,1.9,0.5,2.4,1.2l-0.5,0.3c-0.4-0.6-1.1-1-2-1
				c-1.5,0-2.8,1.2-2.8,2.9c0,1.7,1.2,2.9,2.8,2.9c0.8,0,1.5-0.4,2-1l0.5,0.3c-0.6,0.7-1.4,1.2-2.4,1.2
				C2357.3,1467.5,2355.8,1466.1,2355.8,1464z"/>
			<path class="st3" d="M2364.5,1461.2h-2.2v-0.5h4.9v0.5h-2.2v6.1h-0.6V1461.2z"/>
		</g>
		<g class="st2">
			<path class="st3" d="M2311.8,1466c0.4,0.5,1.1,1,2.1,1c1.4,0,1.8-0.8,1.8-1.3c0-0.9-0.9-1.2-1.8-1.4c-1-0.3-2.2-0.6-2.2-1.8
				c0-1.1,1-1.8,2.2-1.8c1,0,1.7,0.3,2.3,0.9l-0.4,0.4c-0.5-0.6-1.2-0.8-1.9-0.8c-0.9,0-1.6,0.5-1.6,1.2c0,0.8,0.8,1,1.7,1.3
				c1.1,0.3,2.3,0.6,2.3,2c0,0.8-0.6,1.9-2.4,1.9c-1.1,0-1.9-0.4-2.4-1.1L2311.8,1466z"/>
			<path class="st3" d="M2317.6,1460.7h4.2v0.5h-3.7v2.5h3.6v0.5h-3.6v2.6h3.7v0.5h-4.2V1460.7z"/>
			<path class="st3" d="M2323.3,1460.7h2.5c1.3,0,2,0.9,2,1.9c0,1-0.7,1.9-2,1.9h-1.9v2.8h-0.6V1460.7z M2325.7,1461.2h-1.9v2.9h1.9
				c0.9,0,1.5-0.6,1.5-1.4C2327.2,1461.8,2326.6,1461.2,2325.7,1461.2z"/>
		</g>
		<g class="st2">
			<path class="st3" d="M2275.5,1465.7h-3.5l-0.7,1.6h-0.6l2.7-6.7h0.7l2.7,6.7h-0.6L2275.5,1465.7z M2272.1,1465.2h3.2l-1.6-3.9
				L2272.1,1465.2z"/>
			<path class="st3" d="M2277.5,1460.7h0.6v4.1c0,1.3,0.7,2.2,2,2.2c1.3,0,2-0.8,2-2.2v-4.1h0.6v4.1c0,1.6-0.9,2.7-2.6,2.7
				c-1.7,0-2.6-1-2.6-2.7V1460.7z"/>
			<path class="st3" d="M2287.5,1460.6c1.1,0,1.9,0.4,2.5,1.1l-0.4,0.3c-0.5-0.6-1.2-0.9-2.1-0.9c-1.6,0-2.8,1.2-2.8,2.9
				c0,1.7,1.2,2.9,2.8,2.9c0.9,0,1.6-0.4,2-0.8v-1.6h-2.5v-0.5h3.1v2.3c-0.6,0.7-1.5,1.1-2.5,1.1c-1.9,0-3.4-1.4-3.4-3.5
				S2285.6,1460.6,2287.5,1460.6z"/>
		</g>
		<g class="st2">
			<path class="st3" d="M2234.8,1466.2c0.3,0.4,0.7,0.7,1.3,0.7c0.9,0,1.5-0.6,1.5-1.5v-4.7h0.6v4.7c0,1.4-0.9,2-2,2
				c-0.7,0-1.3-0.3-1.7-0.8L2234.8,1466.2z"/>
			<path class="st3" d="M2239.8,1460.7h0.6v4.1c0,1.3,0.7,2.2,2,2.2s2-0.8,2-2.2v-4.1h0.6v4.1c0,1.6-0.9,2.7-2.6,2.7
				c-1.7,0-2.6-1-2.6-2.7V1460.7z"/>
			<path class="st3" d="M2246.7,1460.7h0.6v6.1h3.2v0.5h-3.8V1460.7z"/>
		</g>
		<g class="st2">
			<path class="st3" d="M2425.4,1460.7h2.5c2.1,0,3.5,1.4,3.5,3.3s-1.4,3.3-3.5,3.3h-2.5V1460.7z M2427.9,1466.3
				c1.4,0,2.3-1,2.3-2.3c0-1.3-0.8-2.3-2.3-2.3h-1.3v4.6H2427.9z"/>
			<path class="st3" d="M2432.5,1460.7h4.6v1h-3.4v1.7h3.3v1h-3.3v1.8h3.4v1h-4.6V1460.7z"/>
			<path class="st3" d="M2438,1464c0-2,1.5-3.4,3.4-3.4c1.4,0,2.2,0.7,2.7,1.5l-1,0.5c-0.3-0.5-1-1-1.7-1c-1.3,0-2.2,1-2.2,2.4
				s1,2.4,2.2,2.4c0.8,0,1.4-0.4,1.7-1l1,0.5c-0.5,0.8-1.3,1.5-2.7,1.5C2439.5,1467.5,2438,1466.1,2438,1464z"/>
		</g>
		<path id="Rectangle_1894" class="st4" d="M2434.6,1353.3L2434.6,1353.3c2.2,0,4,1.8,4,4v83c0,2.2-1.8,4-4,4l0,0c-2.2,0-4-1.8-4-4
			v-83C2430.6,1355.1,2432.4,1353.3,2434.6,1353.3z"/>
		<path id="Rectangle_1895" class="st4" d="M2395.6,1353.3L2395.6,1353.3c2.2,0,4,1.8,4,4v83c0,2.2-1.8,4-4,4l0,0c-2.2,0-4-1.8-4-4
			v-83C2391.6,1355.1,2393.4,1353.3,2395.6,1353.3z"/>
		<path id="Rectangle_1896" class="st4" d="M2357.6,1353.3L2357.6,1353.3c2.2,0,4,1.8,4,4v83c0,2.2-1.8,4-4,4l0,0c-2.2,0-4-1.8-4-4
			v-83C2353.6,1355.1,2355.4,1353.3,2357.6,1353.3z"/>
		<path id="Rectangle_1897" class="st4" d="M2319.6,1353.3L2319.6,1353.3c2.2,0,4,1.8,4,4v83c0,2.2-1.8,4-4,4l0,0c-2.2,0-4-1.8-4-4
			v-83C2315.6,1355.1,2317.4,1353.3,2319.6,1353.3z"/>
		<path id="Rectangle_1898" class="st4" d="M2280.6,1353.3L2280.6,1353.3c2.2,0,4,1.8,4,4v83c0,2.2-1.8,4-4,4l0,0c-2.2,0-4-1.8-4-4
			v-83C2276.6,1355.1,2278.4,1353.3,2280.6,1353.3z"/>
		<path id="Rectangle_1899" class="st4" d="M2242.6,1353.3L2242.6,1353.3c2.2,0,4,1.8,4,4v83c0,2.2-1.8,4-4,4l0,0c-2.2,0-4-1.8-4-4
			v-83C2238.6,1355.1,2240.4,1353.3,2242.6,1353.3z"/>
		<path id="Rectangle_1699" class="st5" d="M2434.6,1395.3L2434.6,1395.3c2.2,0,4,1.8,4,4v41c0,2.2-1.8,4-4,4l0,0c-2.2,0-4-1.8-4-4
			v-41C2430.6,1397.1,2432.4,1395.3,2434.6,1395.3z"/>
		<path id="Rectangle_1700" class="st5" d="M2242.6,1416.3L2242.6,1416.3c2.2,0,4,1.8,4,4v20c0,2.2-1.8,4-4,4l0,0c-2.2,0-4-1.8-4-4
			v-20C2238.6,1418.1,2240.4,1416.3,2242.6,1416.3z"/>
		<path id="Rectangle_1701" class="st5" d="M2280.6,1409.3L2280.6,1409.3c2.2,0,4,1.8,4,4v27c0,2.2-1.8,4-4,4l0,0c-2.2,0-4-1.8-4-4
			v-27C2276.6,1411.1,2278.4,1409.3,2280.6,1409.3z"/>
		<path id="Rectangle_1702" class="st5" d="M2319.6,1409.3L2319.6,1409.3c2.2,0,4,1.8,4,4v27c0,2.2-1.8,4-4,4l0,0c-2.2,0-4-1.8-4-4
			v-27C2315.6,1411.1,2317.4,1409.3,2319.6,1409.3z"/>
		<path id="Rectangle_1703" class="st5" d="M2357.6,1395.3L2357.6,1395.3c2.2,0,4,1.8,4,4v41c0,2.2-1.8,4-4,4l0,0c-2.2,0-4-1.8-4-4
			v-41C2353.6,1397.1,2355.4,1395.3,2357.6,1395.3z"/>
		<path id="Rectangle_1704" class="st5" d="M2395.6,1388.3L2395.6,1388.3c2.2,0,4,1.8,4,4v48c0,2.2-1.8,4-4,4l0,0c-2.2,0-4-1.8-4-4
			v-48C2391.6,1390.1,2393.4,1388.3,2395.6,1388.3z"/>
		<path id="Line_Chart-9" class="st6" d="M2243,1418.9c0,0,18.3-6.8,38-6.8h39.3c19.9,0,17.5-13.9,37.3-13.9s18.1-6.9,38-6.9
			s19,8.5,38.7,8.5"/>
		<g id="Details-9" transform="translate(1776.139 1397.209)">
			<path id="Tag-9" class="st14" d="M672.4-17.4l-11.6,7.8c-1.2,0.8-2.8,0.8-4,0l-11.6-7.8c-1-0.7-1.6-1.8-1.6-3V-30
				c0-2,1.6-3.7,3.6-3.7c0,0,0,0,0,0h23c2,0,3.7,1.6,3.7,3.7v9.7C673.9-19.1,673.3-18,672.4-17.4z"/>
			<g class="st2">
				<path class="st8" d="M656.2-22.6c-1.3-0.5-2.4-1.3-2.4-2.8c0-2.3,2.4-3.2,4.6-3.2c2.2,0,4.6,0.9,4.6,3.2c0,1.5-1.1,2.4-2.4,2.8
					c1.4,0.5,2.6,1.6,2.6,3.1c0,2.2-2.3,3.3-4.8,3.3c-2.5,0-4.8-1.1-4.8-3.3C653.6-21,654.8-22.1,656.2-22.6z M658.5-21.5
					c-0.8,0.1-2.2,0.6-2.2,1.6c0,0.9,1,1.4,2.2,1.4c1.2,0,2.2-0.6,2.2-1.4C660.7-20.9,659.2-21.4,658.5-21.5z M658.5-26.4
					c-1.2,0-2,0.5-2,1.4c0,0.9,1.3,1.4,2,1.5c0.7-0.1,2-0.5,2-1.5C660.5-25.9,659.6-26.4,658.5-26.4z"/>
			</g>
			<g id="Ellipse_10-9" transform="translate(7.861 28.79)">
				<circle class="st14" cx="650.6" cy="-26.7" r="7"/>
				<circle class="st9" cx="650.6" cy="-26.7" r="5"/>
			</g>
		</g>
	</g>
	<rect id="Rectangle_1840" x="2229.6" y="1319.3" class="st10" width="220" height="150"/>
</g>
<g id="Group_286" transform="translate(-1226 -658)" class="st0">
	<g id="Group_279" transform="translate(0 -0.209)" class="st1">
		<g class="st2">
			<path class="st3" d="M2022.5,1650.6v5.8h-0.6v-6.7h0.6l4.2,5.7v-5.7h0.6v6.7h-0.6L2022.5,1650.6z"/>
			<path class="st3" d="M2031.9,1649.6c1.9,0,3.2,1.5,3.2,3.4s-1.3,3.4-3.2,3.4c-2,0-3.2-1.5-3.2-3.4S2030,1649.6,2031.9,1649.6z
				 M2031.9,1650.1c-1.6,0-2.6,1.2-2.6,2.9c0,1.7,1,2.9,2.6,2.9c1.6,0,2.6-1.3,2.6-2.9C2034.6,1651.3,2033.5,1650.1,2031.9,1650.1z"
				/>
			<path class="st3" d="M2035.7,1649.7h0.7l2.4,6l2.4-6h0.7l-2.7,6.7h-0.7L2035.7,1649.7z"/>
		</g>
		<g class="st2">
			<path class="st3" d="M1987.4,1649.6c1.9,0,3.2,1.5,3.2,3.4s-1.3,3.4-3.2,3.4c-2,0-3.2-1.5-3.2-3.4S1985.4,1649.6,1987.4,1649.6z
				 M1987.4,1650.1c-1.6,0-2.6,1.2-2.6,2.9c0,1.7,1,2.9,2.6,2.9c1.6,0,2.6-1.3,2.6-2.9C1990,1651.3,1989,1650.1,1987.4,1650.1z"/>
			<path class="st3" d="M1991.8,1653c0-2,1.5-3.4,3.4-3.4c1.1,0,1.9,0.5,2.4,1.2l-0.5,0.3c-0.4-0.6-1.1-1-2-1
				c-1.5,0-2.8,1.2-2.8,2.9c0,1.7,1.2,2.9,2.8,2.9c0.8,0,1.5-0.4,2-1l0.5,0.3c-0.6,0.7-1.4,1.2-2.4,1.2
				C1993.3,1656.5,1991.8,1655.1,1991.8,1653z"/>
			<path class="st3" d="M2000.5,1650.2h-2.2v-0.5h4.9v0.5h-2.2v6.1h-0.6V1650.2z"/>
		</g>
		<g class="st2">
			<path class="st3" d="M1947.8,1655c0.4,0.5,1.1,1,2.1,1c1.4,0,1.8-0.8,1.8-1.3c0-0.9-0.9-1.2-1.8-1.4c-1-0.3-2.2-0.6-2.2-1.8
				c0-1.1,1-1.8,2.2-1.8c1,0,1.7,0.3,2.3,0.9l-0.4,0.4c-0.5-0.6-1.2-0.8-1.9-0.8c-0.9,0-1.6,0.5-1.6,1.2c0,0.8,0.8,1,1.7,1.3
				c1.1,0.3,2.3,0.6,2.3,2c0,0.8-0.6,1.9-2.4,1.9c-1.1,0-1.9-0.4-2.4-1.1L1947.8,1655z"/>
			<path class="st3" d="M1953.6,1649.7h4.2v0.5h-3.7v2.5h3.6v0.5h-3.6v2.6h3.7v0.5h-4.2V1649.7z"/>
			<path class="st3" d="M1959.3,1649.7h2.5c1.3,0,2,0.9,2,1.9c0,1-0.7,1.9-2,1.9h-1.9v2.8h-0.6V1649.7z M1961.7,1650.2h-1.9v2.9h1.9
				c0.9,0,1.5-0.6,1.5-1.4C1963.2,1650.8,1962.6,1650.2,1961.7,1650.2z"/>
		</g>
		<g class="st2">
			<path class="st3" d="M1911.5,1654.7h-3.5l-0.7,1.6h-0.6l2.7-6.7h0.7l2.7,6.7h-0.6L1911.5,1654.7z M1908.1,1654.2h3.2l-1.6-3.9
				L1908.1,1654.2z"/>
			<path class="st3" d="M1913.5,1649.7h0.6v4.1c0,1.3,0.7,2.2,2,2.2c1.3,0,2-0.8,2-2.2v-4.1h0.6v4.1c0,1.6-0.9,2.7-2.6,2.7
				c-1.7,0-2.6-1-2.6-2.7V1649.7z"/>
			<path class="st3" d="M1923.5,1649.6c1.1,0,1.9,0.4,2.5,1.1l-0.4,0.3c-0.5-0.6-1.2-0.9-2.1-0.9c-1.6,0-2.8,1.2-2.8,2.9
				c0,1.7,1.2,2.9,2.8,2.9c0.9,0,1.6-0.4,2-0.8v-1.6h-2.5v-0.5h3.1v2.3c-0.6,0.7-1.5,1.1-2.5,1.1c-1.9,0-3.4-1.4-3.4-3.5
				S1921.6,1649.6,1923.5,1649.6z"/>
		</g>
		<g class="st2">
			<path class="st3" d="M1870.8,1655.2c0.3,0.4,0.7,0.7,1.3,0.7c0.9,0,1.5-0.6,1.5-1.5v-4.7h0.6v4.7c0,1.4-0.9,2-2,2
				c-0.7,0-1.3-0.3-1.7-0.8L1870.8,1655.2z"/>
			<path class="st3" d="M1875.8,1649.7h0.6v4.1c0,1.3,0.7,2.2,2,2.2c1.3,0,2-0.8,2-2.2v-4.1h0.6v4.1c0,1.6-0.9,2.7-2.6,2.7
				c-1.7,0-2.6-1-2.6-2.7V1649.7z"/>
			<path class="st3" d="M1882.7,1649.7h0.6v6.1h3.2v0.5h-3.8V1649.7z"/>
		</g>
		<g class="st2">
			<path class="st3" d="M2061.4,1649.7h2.5c2.1,0,3.5,1.4,3.5,3.3s-1.4,3.3-3.5,3.3h-2.5V1649.7z M2063.9,1655.3
				c1.4,0,2.3-1,2.3-2.3c0-1.3-0.8-2.3-2.3-2.3h-1.3v4.6H2063.9z"/>
			<path class="st3" d="M2068.5,1649.7h4.6v1h-3.4v1.7h3.3v1h-3.3v1.8h3.4v1h-4.6V1649.7z"/>
			<path class="st3" d="M2074,1653c0-2,1.5-3.4,3.4-3.4c1.4,0,2.2,0.7,2.7,1.5l-1,0.5c-0.3-0.5-1-1-1.7-1c-1.3,0-2.2,1-2.2,2.4
				s1,2.4,2.2,2.4c0.8,0,1.4-0.4,1.7-1l1,0.5c-0.5,0.8-1.3,1.5-2.7,1.5C2075.5,1656.5,2074,1655.1,2074,1653z"/>
		</g>
		<path id="Rectangle_1918" class="st4" d="M2070.6,1542.3L2070.6,1542.3c2.2,0,4,1.8,4,4v83c0,2.2-1.8,4-4,4l0,0c-2.2,0-4-1.8-4-4
			v-83C2066.6,1544.1,2068.4,1542.3,2070.6,1542.3z"/>
		<path id="Rectangle_1919" class="st4" d="M2031.6,1542.3L2031.6,1542.3c2.2,0,4,1.8,4,4v83c0,2.2-1.8,4-4,4l0,0c-2.2,0-4-1.8-4-4
			v-83C2027.6,1544.1,2029.4,1542.3,2031.6,1542.3z"/>
		<path id="Rectangle_1920" class="st4" d="M1993.6,1542.3L1993.6,1542.3c2.2,0,4,1.8,4,4v83c0,2.2-1.8,4-4,4l0,0c-2.2,0-4-1.8-4-4
			v-83C1989.6,1544.1,1991.4,1542.3,1993.6,1542.3z"/>
		<path id="Rectangle_1921" class="st4" d="M1955.6,1542.3L1955.6,1542.3c2.2,0,4,1.8,4,4v83c0,2.2-1.8,4-4,4l0,0c-2.2,0-4-1.8-4-4
			v-83C1951.6,1544.1,1953.4,1542.3,1955.6,1542.3z"/>
		<path id="Rectangle_1922" class="st4" d="M1916.6,1542.3L1916.6,1542.3c2.2,0,4,1.8,4,4v83c0,2.2-1.8,4-4,4l0,0c-2.2,0-4-1.8-4-4
			v-83C1912.6,1544.1,1914.4,1542.3,1916.6,1542.3z"/>
		<path id="Rectangle_1923" class="st4" d="M1878.6,1542.3L1878.6,1542.3c2.2,0,4,1.8,4,4v83c0,2.2-1.8,4-4,4l0,0c-2.2,0-4-1.8-4-4
			v-83C1874.6,1544.1,1876.4,1542.3,1878.6,1542.3z"/>
		<path id="Rectangle_1737" class="st5" d="M2070.6,1591.3L2070.6,1591.3c2.2,0,4,1.8,4,4v34c0,2.2-1.8,4-4,4l0,0c-2.2,0-4-1.8-4-4
			v-34C2066.6,1593.1,2068.4,1591.3,2070.6,1591.3z"/>
		<path id="Rectangle_1755" class="st5" d="M1878.6,1612.3L1878.6,1612.3c2.2,0,4,1.8,4,4v13c0,2.2-1.8,4-4,4l0,0c-2.2,0-4-1.8-4-4
			v-13C1874.6,1614.1,1876.4,1612.3,1878.6,1612.3z"/>
		<path id="Rectangle_1753" class="st5" d="M1916.6,1584.3L1916.6,1584.3c2.2,0,4,1.8,4,4v41c0,2.2-1.8,4-4,4l0,0c-2.2,0-4-1.8-4-4
			v-41C1912.6,1586.1,1914.4,1584.3,1916.6,1584.3z"/>
		<path id="Rectangle_1748" class="st5" d="M1955.6,1577.3L1955.6,1577.3c2.2,0,4,1.8,4,4v48c0,2.2-1.8,4-4,4l0,0c-2.2,0-4-1.8-4-4
			v-48C1951.6,1579.1,1953.4,1577.3,1955.6,1577.3z"/>
		<path id="Rectangle_1738" class="st5" d="M1993.6,1605.3L1993.6,1605.3c2.2,0,4,1.8,4,4v20c0,2.2-1.8,4-4,4l0,0c-2.2,0-4-1.8-4-4
			v-20C1989.6,1607.1,1991.4,1605.3,1993.6,1605.3z"/>
		<path id="Rectangle_1739" class="st5" d="M2031.6,1598.3L2031.6,1598.3c2.2,0,4,1.8,4,4v27c0,2.2-1.8,4-4,4l0,0c-2.2,0-4-1.8-4-4
			v-27C2027.6,1600.1,2029.4,1598.3,2031.6,1598.3z"/>
		<path id="Line_Chart-10" class="st6" d="M1878.7,1615.7c0,0,18.2-28.5,37.9-28.5s19.4-6.9,39.3-6.9s18.2,27.2,38,27.2
			s17.6-6.2,37.4-6.2s19-5.2,38.7-5.2"/>
		<g id="Details-10" transform="translate(1412.139 1593.209)">
			<path id="Tag-10" class="st14" d="M672.4-17.4l-11.6,7.8c-1.2,0.8-2.8,0.8-4,0l-11.6-7.8c-1-0.7-1.6-1.8-1.6-3V-30
				c0-2,1.6-3.7,3.6-3.7c0,0,0,0,0,0h23c2,0,3.7,1.6,3.7,3.7v9.7C673.9-19.1,673.3-18,672.4-17.4z"/>
			<g class="st2">
				<path class="st8" d="M655.3-19.4c0.6,0.6,1.3,0.9,2.4,0.9c1.9,0,3-1.6,3-3.5v-0.3c-0.6,0.8-1.8,1.5-3.1,1.5
					c-2.2,0-4.1-1.3-4.1-3.9c0-2.3,1.9-4.1,4.6-4.1c3.6,0,5.2,2.8,5.2,6.2c0,3.6-2,6.2-5.6,6.2c-1.5,0-2.7-0.5-3.5-1.2L655.3-19.4z
					 M658.2-26.4c-1.4,0-2.1,1-2.1,1.8c0,1.3,1.1,1.8,2.2,1.8c0.9,0,1.8-0.4,2.4-1.1C660.6-25.1,659.9-26.4,658.2-26.4z"/>
			</g>
			<g id="Ellipse_10-10" transform="translate(7.861 28.79)">
				<circle class="st14" cx="650.6" cy="-26.7" r="7"/>
				<circle class="st9" cx="650.6" cy="-26.7" r="5"/>
			</g>
		</g>
	</g>
	<rect id="Rectangle_1841" x="1870.6" y="1508.3" class="st10" width="220" height="150"/>
</g>
<g id="Group_282" transform="translate(-1226 -658)" class="st0">
	<g id="Group_278" transform="translate(-5)" class="st1">
		<g class="st2">
			<path class="st3" d="M2382.5,1650.6v5.8h-0.6v-6.7h0.6l4.2,5.7v-5.7h0.6v6.7h-0.6L2382.5,1650.6z"/>
			<path class="st3" d="M2391.9,1649.6c1.9,0,3.2,1.5,3.2,3.4s-1.3,3.4-3.2,3.4c-2,0-3.2-1.5-3.2-3.4S2390,1649.6,2391.9,1649.6z
				 M2391.9,1650.1c-1.6,0-2.6,1.2-2.6,2.9c0,1.7,1,2.9,2.6,2.9c1.6,0,2.6-1.3,2.6-2.9C2394.6,1651.3,2393.5,1650.1,2391.9,1650.1z"
				/>
			<path class="st3" d="M2395.7,1649.7h0.7l2.4,6l2.4-6h0.7l-2.7,6.7h-0.7L2395.7,1649.7z"/>
		</g>
		<g class="st2">
			<path class="st3" d="M2347.4,1649.6c1.9,0,3.2,1.5,3.2,3.4s-1.3,3.4-3.2,3.4c-2,0-3.2-1.5-3.2-3.4S2345.4,1649.6,2347.4,1649.6z
				 M2347.4,1650.1c-1.6,0-2.6,1.2-2.6,2.9c0,1.7,1,2.9,2.6,2.9c1.6,0,2.6-1.3,2.6-2.9C2350,1651.3,2349,1650.1,2347.4,1650.1z"/>
			<path class="st3" d="M2351.8,1653c0-2,1.5-3.4,3.4-3.4c1.1,0,1.9,0.5,2.4,1.2l-0.5,0.3c-0.4-0.6-1.1-1-2-1
				c-1.5,0-2.8,1.2-2.8,2.9c0,1.7,1.2,2.9,2.8,2.9c0.8,0,1.5-0.4,2-1l0.5,0.3c-0.6,0.7-1.4,1.2-2.4,1.2
				C2353.3,1656.5,2351.8,1655.1,2351.8,1653z"/>
			<path class="st3" d="M2360.5,1650.2h-2.2v-0.5h4.9v0.5h-2.2v6.1h-0.6V1650.2z"/>
		</g>
		<g class="st2">
			<path class="st3" d="M2307.8,1655c0.4,0.5,1.1,1,2.1,1c1.4,0,1.8-0.8,1.8-1.3c0-0.9-0.9-1.2-1.8-1.4c-1-0.3-2.2-0.6-2.2-1.8
				c0-1.1,1-1.8,2.2-1.8c1,0,1.7,0.3,2.3,0.9l-0.4,0.4c-0.5-0.6-1.2-0.8-1.9-0.8c-0.9,0-1.6,0.5-1.6,1.2c0,0.8,0.8,1,1.7,1.3
				c1.1,0.3,2.3,0.6,2.3,2c0,0.8-0.6,1.9-2.4,1.9c-1.1,0-1.9-0.4-2.4-1.1L2307.8,1655z"/>
			<path class="st3" d="M2313.6,1649.7h4.2v0.5h-3.7v2.5h3.6v0.5h-3.6v2.6h3.7v0.5h-4.2V1649.7z"/>
			<path class="st3" d="M2319.3,1649.7h2.5c1.3,0,2,0.9,2,1.9c0,1-0.7,1.9-2,1.9h-1.9v2.8h-0.6V1649.7z M2321.7,1650.2h-1.9v2.9h1.9
				c0.9,0,1.5-0.6,1.5-1.4C2323.2,1650.8,2322.6,1650.2,2321.7,1650.2z"/>
		</g>
		<g class="st2">
			<path class="st3" d="M2271.5,1654.7h-3.5l-0.7,1.6h-0.6l2.7-6.7h0.7l2.7,6.7h-0.6L2271.5,1654.7z M2268.1,1654.2h3.2l-1.6-3.9
				L2268.1,1654.2z"/>
			<path class="st3" d="M2273.5,1649.7h0.6v4.1c0,1.3,0.7,2.2,2,2.2c1.3,0,2-0.8,2-2.2v-4.1h0.6v4.1c0,1.6-0.9,2.7-2.6,2.7
				c-1.7,0-2.6-1-2.6-2.7V1649.7z"/>
			<path class="st3" d="M2283.5,1649.6c1.1,0,1.9,0.4,2.5,1.1l-0.4,0.3c-0.5-0.6-1.2-0.9-2.1-0.9c-1.6,0-2.8,1.2-2.8,2.9
				c0,1.7,1.2,2.9,2.8,2.9c0.9,0,1.6-0.4,2-0.8v-1.6h-2.5v-0.5h3.1v2.3c-0.6,0.7-1.5,1.1-2.5,1.1c-1.9,0-3.4-1.4-3.4-3.5
				S2281.6,1649.6,2283.5,1649.6z"/>
		</g>
		<g class="st2">
			<path class="st3" d="M2230.8,1655.2c0.3,0.4,0.7,0.7,1.3,0.7c0.9,0,1.5-0.6,1.5-1.5v-4.7h0.6v4.7c0,1.4-0.9,2-2,2
				c-0.7,0-1.3-0.3-1.7-0.8L2230.8,1655.2z"/>
			<path class="st3" d="M2235.8,1649.7h0.6v4.1c0,1.3,0.7,2.2,2,2.2s2-0.8,2-2.2v-4.1h0.6v4.1c0,1.6-0.9,2.7-2.6,2.7
				c-1.7,0-2.6-1-2.6-2.7V1649.7z"/>
			<path class="st3" d="M2242.7,1649.7h0.6v6.1h3.2v0.5h-3.8V1649.7z"/>
		</g>
		<g class="st2">
			<path class="st3" d="M2421.4,1649.7h2.5c2.1,0,3.5,1.4,3.5,3.3s-1.4,3.3-3.5,3.3h-2.5V1649.7z M2423.9,1655.3
				c1.4,0,2.3-1,2.3-2.3c0-1.3-0.8-2.3-2.3-2.3h-1.3v4.6H2423.9z"/>
			<path class="st3" d="M2428.5,1649.7h4.6v1h-3.4v1.7h3.3v1h-3.3v1.8h3.4v1h-4.6V1649.7z"/>
			<path class="st3" d="M2434,1653c0-2,1.5-3.4,3.4-3.4c1.4,0,2.2,0.7,2.7,1.5l-1,0.5c-0.3-0.5-1-1-1.7-1c-1.3,0-2.2,1-2.2,2.4
				s1,2.4,2.2,2.4c0.8,0,1.4-0.4,1.7-1l1,0.5c-0.5,0.8-1.3,1.5-2.7,1.5C2435.5,1656.5,2434,1655.1,2434,1653z"/>
		</g>
		<path id="Rectangle_1912" class="st4" d="M2430.6,1542.1L2430.6,1542.1c2.2,0,4,1.8,4,4v83c0,2.2-1.8,4-4,4l0,0c-2.2,0-4-1.8-4-4
			v-83C2426.6,1543.9,2428.4,1542.1,2430.6,1542.1z"/>
		<path id="Rectangle_1913" class="st4" d="M2391.6,1542.1L2391.6,1542.1c2.2,0,4,1.8,4,4v83c0,2.2-1.8,4-4,4l0,0c-2.2,0-4-1.8-4-4
			v-83C2387.6,1543.9,2389.4,1542.1,2391.6,1542.1z"/>
		<path id="Rectangle_1914" class="st4" d="M2353.6,1542.1L2353.6,1542.1c2.2,0,4,1.8,4,4v83c0,2.2-1.8,4-4,4l0,0c-2.2,0-4-1.8-4-4
			v-83C2349.6,1543.9,2351.4,1542.1,2353.6,1542.1z"/>
		<path id="Rectangle_1915" class="st4" d="M2315.6,1542.1L2315.6,1542.1c2.2,0,4,1.8,4,4v83c0,2.2-1.8,4-4,4l0,0c-2.2,0-4-1.8-4-4
			v-83C2311.6,1543.9,2313.4,1542.1,2315.6,1542.1z"/>
		<path id="Rectangle_1916" class="st4" d="M2276.6,1542.1L2276.6,1542.1c2.2,0,4,1.8,4,4v83c0,2.2-1.8,4-4,4l0,0c-2.2,0-4-1.8-4-4
			v-83C2272.6,1543.9,2274.4,1542.1,2276.6,1542.1z"/>
		<path id="Rectangle_1917" class="st4" d="M2238.6,1542.1L2238.6,1542.1c2.2,0,4,1.8,4,4v83c0,2.2-1.8,4-4,4l0,0c-2.2,0-4-1.8-4-4
			v-83C2234.6,1543.9,2236.4,1542.1,2238.6,1542.1z"/>
		<path id="Rectangle_1756" class="st5" d="M2430.6,1605.3L2430.6,1605.3c2.2,0,4,1.8,4,4v20c0,2.2-1.8,4-4,4l0,0c-2.2,0-4-1.8-4-4
			v-20C2426.6,1607.1,2428.4,1605.3,2430.6,1605.3z"/>
		<path id="Rectangle_1773" class="st5" d="M2238.6,1584.3L2238.6,1584.3c2.2,0,4,1.8,4,4v41c0,2.2-1.8,4-4,4l0,0c-2.2,0-4-1.8-4-4
			v-41C2234.6,1586.1,2236.4,1584.3,2238.6,1584.3z"/>
		<path id="Rectangle_1768" class="st5" d="M2276.6,1577.3L2276.6,1577.3c2.2,0,4,1.8,4,4v48c0,2.2-1.8,4-4,4l0,0c-2.2,0-4-1.8-4-4
			v-48C2272.6,1579.1,2274.4,1577.3,2276.6,1577.3z"/>
		<path id="Rectangle_1764" class="st5" d="M2315.6,1556.3L2315.6,1556.3c2.2,0,4,1.8,4,4v69c0,2.2-1.8,4-4,4l0,0c-2.2,0-4-1.8-4-4
			v-69C2311.6,1558.1,2313.4,1556.3,2315.6,1556.3z"/>
		<path id="Rectangle_1759" class="st5" d="M2353.6,1570.3L2353.6,1570.3c2.2,0,4,1.8,4,4v55c0,2.2-1.8,4-4,4l0,0c-2.2,0-4-1.8-4-4
			v-55C2349.6,1572.1,2351.4,1570.3,2353.6,1570.3z"/>
		<path id="Rectangle_1757" class="st5" d="M2391.6,1612.3L2391.6,1612.3c2.2,0,4,1.8,4,4v13c0,2.2-1.8,4-4,4l0,0c-2.2,0-4-1.8-4-4
			v-13C2387.6,1614.1,2389.4,1612.3,2391.6,1612.3z"/>
		<path id="Line_Chart-11" class="st6" d="M2238.3,1586.2c0,0,18.7-6.9,38.3-6.9s19-20.6,38.9-20.6s18.8,14.1,38.6,14.1
			s18.2,42.1,38.1,42.1s18.2-5.3,37.8-5.3"/>
		<g id="Details-11" transform="translate(1772.139 1607.209)">
			<path id="Tag-11" class="st14" d="M672.4-17.4l-11.6,7.8c-1.2,0.8-2.8,0.8-4,0l-11.6-7.8c-1-0.7-1.6-1.8-1.6-3V-30
				c0-2,1.6-3.7,3.6-3.7c0,0,0,0,0,0h23c2,0,3.7,1.6,3.7,3.7v9.7C673.9-19.1,673.3-18,672.4-17.4z"/>
			<g class="st2">
				<path class="st8" d="M652.8-25.1l-2,2l-1.5-1.5l3.8-3.8h2.2v12h-2.6V-25.1z"/>
				<path class="st8" d="M662.2-28.6c3.4,0,5,3.1,5,6.2c0,3.1-1.5,6.2-5,6.2c-3.4,0-5-3.1-5-6.2C657.2-25.5,658.7-28.6,662.2-28.6z
					 M662.2-26.3c-1.7,0-2.4,1.7-2.4,3.9s0.6,3.9,2.4,3.9c1.7,0,2.4-1.7,2.4-3.9S663.9-26.3,662.2-26.3z"/>
			</g>
			<g id="Ellipse_10-11" transform="translate(7.861 28.79)">
				<circle class="st14" cx="650.6" cy="-26.7" r="7"/>
				<circle class="st9" cx="650.6" cy="-26.7" r="5"/>
			</g>
		</g>
	</g>
	<rect id="Rectangle_1842" x="2225.6" y="1508.3" class="st10" width="220" height="150"/>
</g>
<g id="Group_280" transform="translate(-1226 -658)" class="st0">
	<g id="Group_276" transform="translate(-5 -0.209)" class="st1">
		<g class="st2">
			<path class="st3" d="M2755.5,1461.6v5.8h-0.6v-6.7h0.6l4.2,5.7v-5.7h0.6v6.7h-0.6L2755.5,1461.6z"/>
			<path class="st3" d="M2764.9,1460.6c1.9,0,3.2,1.5,3.2,3.4s-1.3,3.4-3.2,3.4c-2,0-3.2-1.5-3.2-3.4S2763,1460.6,2764.9,1460.6z
				 M2764.9,1461.1c-1.6,0-2.6,1.2-2.6,2.9c0,1.7,1,2.9,2.6,2.9c1.6,0,2.6-1.3,2.6-2.9C2767.6,1462.3,2766.5,1461.1,2764.9,1461.1z"
				/>
			<path class="st3" d="M2768.7,1460.7h0.7l2.4,6l2.4-6h0.7l-2.7,6.7h-0.7L2768.7,1460.7z"/>
		</g>
		<g class="st2">
			<path class="st3" d="M2720.4,1460.6c1.9,0,3.2,1.5,3.2,3.4s-1.3,3.4-3.2,3.4c-2,0-3.2-1.5-3.2-3.4S2718.4,1460.6,2720.4,1460.6z
				 M2720.4,1461.1c-1.6,0-2.6,1.2-2.6,2.9c0,1.7,1,2.9,2.6,2.9c1.6,0,2.6-1.3,2.6-2.9C2723,1462.3,2722,1461.1,2720.4,1461.1z"/>
			<path class="st3" d="M2724.8,1464c0-2,1.5-3.4,3.4-3.4c1.1,0,1.9,0.5,2.4,1.2l-0.5,0.3c-0.4-0.6-1.1-1-2-1
				c-1.5,0-2.8,1.2-2.8,2.9c0,1.7,1.2,2.9,2.8,2.9c0.8,0,1.5-0.4,2-1l0.5,0.3c-0.6,0.7-1.4,1.2-2.4,1.2
				C2726.3,1467.5,2724.8,1466.1,2724.8,1464z"/>
			<path class="st3" d="M2733.5,1461.2h-2.2v-0.5h4.9v0.5h-2.2v6.1h-0.6V1461.2z"/>
		</g>
		<g class="st2">
			<path class="st3" d="M2680.8,1466c0.4,0.5,1.1,1,2.1,1c1.4,0,1.8-0.8,1.8-1.3c0-0.9-0.9-1.2-1.8-1.4c-1-0.3-2.2-0.6-2.2-1.8
				c0-1.1,1-1.8,2.2-1.8c1,0,1.7,0.3,2.3,0.9l-0.4,0.4c-0.5-0.6-1.2-0.8-1.9-0.8c-0.9,0-1.6,0.5-1.6,1.2c0,0.8,0.8,1,1.7,1.3
				c1.1,0.3,2.3,0.6,2.3,2c0,0.8-0.6,1.9-2.4,1.9c-1.1,0-1.9-0.4-2.4-1.1L2680.8,1466z"/>
			<path class="st3" d="M2686.6,1460.7h4.2v0.5h-3.7v2.5h3.6v0.5h-3.6v2.6h3.7v0.5h-4.2V1460.7z"/>
			<path class="st3" d="M2692.3,1460.7h2.5c1.3,0,2,0.9,2,1.9c0,1-0.7,1.9-2,1.9h-1.9v2.8h-0.6V1460.7z M2694.7,1461.2h-1.9v2.9h1.9
				c0.9,0,1.5-0.6,1.5-1.4C2696.2,1461.8,2695.6,1461.2,2694.7,1461.2z"/>
		</g>
		<g class="st2">
			<path class="st3" d="M2644.5,1465.7h-3.5l-0.7,1.6h-0.6l2.7-6.7h0.7l2.7,6.7h-0.6L2644.5,1465.7z M2641.1,1465.2h3.2l-1.6-3.9
				L2641.1,1465.2z"/>
			<path class="st3" d="M2646.5,1460.7h0.6v4.1c0,1.3,0.7,2.2,2,2.2c1.3,0,2-0.8,2-2.2v-4.1h0.6v4.1c0,1.6-0.9,2.7-2.6,2.7
				c-1.7,0-2.6-1-2.6-2.7V1460.7z"/>
			<path class="st3" d="M2656.5,1460.6c1.1,0,1.9,0.4,2.5,1.1l-0.4,0.3c-0.5-0.6-1.2-0.9-2.1-0.9c-1.6,0-2.8,1.2-2.8,2.9
				c0,1.7,1.2,2.9,2.8,2.9c0.9,0,1.6-0.4,2-0.8v-1.6h-2.5v-0.5h3.1v2.3c-0.6,0.7-1.5,1.1-2.5,1.1c-1.9,0-3.4-1.4-3.4-3.5
				S2654.6,1460.6,2656.5,1460.6z"/>
		</g>
		<g class="st2">
			<path class="st3" d="M2603.8,1466.2c0.3,0.4,0.7,0.7,1.3,0.7c0.9,0,1.5-0.6,1.5-1.5v-4.7h0.6v4.7c0,1.4-0.9,2-2,2
				c-0.7,0-1.3-0.3-1.7-0.8L2603.8,1466.2z"/>
			<path class="st3" d="M2608.8,1460.7h0.6v4.1c0,1.3,0.7,2.2,2,2.2s2-0.8,2-2.2v-4.1h0.6v4.1c0,1.6-0.9,2.7-2.6,2.7
				c-1.7,0-2.6-1-2.6-2.7V1460.7z"/>
			<path class="st3" d="M2615.7,1460.7h0.6v6.1h3.2v0.5h-3.8V1460.7z"/>
		</g>
		<g class="st2">
			<path class="st3" d="M2794.4,1460.7h2.5c2.1,0,3.5,1.4,3.5,3.3s-1.4,3.3-3.5,3.3h-2.5V1460.7z M2796.9,1466.3
				c1.4,0,2.3-1,2.3-2.3c0-1.3-0.8-2.3-2.3-2.3h-1.3v4.6H2796.9z"/>
			<path class="st3" d="M2801.5,1460.7h4.6v1h-3.4v1.7h3.3v1h-3.3v1.8h3.4v1h-4.6V1460.7z"/>
			<path class="st3" d="M2807,1464c0-2,1.5-3.4,3.4-3.4c1.4,0,2.2,0.7,2.7,1.5l-1,0.5c-0.3-0.5-1-1-1.7-1c-1.3,0-2.2,1-2.2,2.4
				s1,2.4,2.2,2.4c0.8,0,1.4-0.4,1.7-1l1,0.5c-0.5,0.8-1.3,1.5-2.7,1.5C2808.5,1467.5,2807,1466.1,2807,1464z"/>
		</g>
		<path id="Rectangle_1900" class="st4" d="M2803.6,1353.3L2803.6,1353.3c2.2,0,4,1.8,4,4v83c0,2.2-1.8,4-4,4l0,0c-2.2,0-4-1.8-4-4
			v-83C2799.6,1355.1,2801.4,1353.3,2803.6,1353.3z"/>
		<path id="Rectangle_1901" class="st4" d="M2764.6,1353.3L2764.6,1353.3c2.2,0,4,1.8,4,4v83c0,2.2-1.8,4-4,4l0,0c-2.2,0-4-1.8-4-4
			v-83C2760.6,1355.1,2762.4,1353.3,2764.6,1353.3z"/>
		<path id="Rectangle_1902" class="st4" d="M2726.6,1353.3L2726.6,1353.3c2.2,0,4,1.8,4,4v83c0,2.2-1.8,4-4,4l0,0c-2.2,0-4-1.8-4-4
			v-83C2722.6,1355.1,2724.4,1353.3,2726.6,1353.3z"/>
		<path id="Rectangle_1903" class="st4" d="M2688.6,1353.3L2688.6,1353.3c2.2,0,4,1.8,4,4v83c0,2.2-1.8,4-4,4l0,0c-2.2,0-4-1.8-4-4
			v-83C2684.6,1355.1,2686.4,1353.3,2688.6,1353.3z"/>
		<path id="Rectangle_1904" class="st4" d="M2649.6,1353.3L2649.6,1353.3c2.2,0,4,1.8,4,4v83c0,2.2-1.8,4-4,4l0,0c-2.2,0-4-1.8-4-4
			v-83C2645.6,1355.1,2647.4,1353.3,2649.6,1353.3z"/>
		<path id="Rectangle_1905" class="st4" d="M2611.6,1353.3L2611.6,1353.3c2.2,0,4,1.8,4,4v83c0,2.2-1.8,4-4,4l0,0c-2.2,0-4-1.8-4-4
			v-83C2607.6,1355.1,2609.4,1353.3,2611.6,1353.3z"/>
		<path id="Rectangle_1794" class="st5" d="M2803.6,1430.3L2803.6,1430.3c2.2,0,4,1.8,4,4v6c0,2.2-1.8,4-4,4l0,0c-2.2,0-4-1.8-4-4
			v-6C2799.6,1432.1,2801.4,1430.3,2803.6,1430.3z"/>
		<path id="Rectangle_1809" class="st5" d="M2611.6,1430.3L2611.6,1430.3c2.2,0,4,1.8,4,4v6c0,2.2-1.8,4-4,4l0,0c-2.2,0-4-1.8-4-4
			v-6C2607.6,1432.1,2609.4,1430.3,2611.6,1430.3z"/>
		<path id="Rectangle_1803" class="st5" d="M2649.6,1409.3L2649.6,1409.3c2.2,0,4,1.8,4,4v27c0,2.2-1.8,4-4,4l0,0c-2.2,0-4-1.8-4-4
			v-27C2645.6,1411.1,2647.4,1409.3,2649.6,1409.3z"/>
		<path id="Rectangle_1804" class="st5" d="M2688.6,1430.3L2688.6,1430.3c2.2,0,4,1.8,4,4v6c0,2.2-1.8,4-4,4l0,0c-2.2,0-4-1.8-4-4
			v-6C2684.6,1432.1,2686.4,1430.3,2688.6,1430.3z"/>
		<path id="Rectangle_1798" class="st5" d="M2726.1,1437.3h1c1.9,0,3.5,1.6,3.5,3.5l0,0c0,1.9-1.6,3.5-3.5,3.5h-1
			c-1.9,0-3.5-1.6-3.5-3.5l0,0C2722.6,1438.9,2724.1,1437.3,2726.1,1437.3z"/>
		<path id="Rectangle_1795" class="st5" d="M2764.6,1423.3L2764.6,1423.3c2.2,0,4,1.8,4,4v13c0,2.2-1.8,4-4,4l0,0c-2.2,0-4-1.8-4-4
			v-13C2760.6,1425.1,2762.4,1423.3,2764.6,1423.3z"/>
		<path id="Line_Chart-12" class="st6" d="M2611.4,1432.7c0,0,18.4-21.1,38.1-21.1s19.9,21.1,39.7,21.1s17.7,7.5,37.5,7.5
			s18.2-14.4,38.1-14.4s18.6,8.2,38.2,8.2"/>
		<g id="Details-12" transform="translate(2145.139 1431.209)">
			<path id="Tag-12" class="st12" d="M672.4-17.4l-11.6,7.8c-1.2,0.8-2.8,0.8-4,0l-11.6-7.8c-1-0.7-1.6-1.8-1.6-3V-30
				c0-2,1.6-3.7,3.6-3.7c0,0,0,0,0,0h23c2,0,3.7,1.6,3.7,3.7v9.7C673.9-19.1,673.3-18,672.4-17.4z"/>
			<g class="st2">
				<path class="st8" d="M653-25.1l-2,2l-1.5-1.5l3.8-3.8h2.2v12H653V-25.1z"/>
				<path class="st8" d="M657.6-18.4c4.9-3.6,6.4-4.9,6.4-6.3c0-1-1-1.6-2-1.6c-1.4,0-2.4,0.5-3.2,1.4l-1.5-1.7c1.2-1.4,3-2,4.6-2
					c2.6,0,4.6,1.4,4.6,3.8c0,2.1-1.7,3.8-4.9,6.1h5v2.3h-9V-18.4z"/>
			</g>
			<g id="Ellipse_10-12" transform="translate(7.861 28.79)">
				<circle class="st12" cx="650.6" cy="-26.7" r="7"/>
				<circle class="st9" cx="650.6" cy="-26.7" r="5"/>
			</g>
		</g>
	</g>
	<rect id="Rectangle_1843" x="2598.6" y="1319.3" class="st10" width="220" height="150"/>
</g>
<g id="Group_281" transform="translate(-1226 -658)" class="st0">
	<g id="Group_277" transform="translate(-5 -0.209)" class="st1">
		<g class="st2">
			<path class="st3" d="M2755.5,1650.6v5.8h-0.6v-6.7h0.6l4.2,5.7v-5.7h0.6v6.7h-0.6L2755.5,1650.6z"/>
			<path class="st3" d="M2764.9,1649.6c1.9,0,3.2,1.5,3.2,3.4s-1.3,3.4-3.2,3.4c-2,0-3.2-1.5-3.2-3.4S2763,1649.6,2764.9,1649.6z
				 M2764.9,1650.1c-1.6,0-2.6,1.2-2.6,2.9c0,1.7,1,2.9,2.6,2.9c1.6,0,2.6-1.3,2.6-2.9C2767.6,1651.3,2766.5,1650.1,2764.9,1650.1z"
				/>
			<path class="st3" d="M2768.7,1649.7h0.7l2.4,6l2.4-6h0.7l-2.7,6.7h-0.7L2768.7,1649.7z"/>
		</g>
		<g class="st2">
			<path class="st3" d="M2720.4,1649.6c1.9,0,3.2,1.5,3.2,3.4s-1.3,3.4-3.2,3.4c-2,0-3.2-1.5-3.2-3.4S2718.4,1649.6,2720.4,1649.6z
				 M2720.4,1650.1c-1.6,0-2.6,1.2-2.6,2.9c0,1.7,1,2.9,2.6,2.9c1.6,0,2.6-1.3,2.6-2.9C2723,1651.3,2722,1650.1,2720.4,1650.1z"/>
			<path class="st3" d="M2724.8,1653c0-2,1.5-3.4,3.4-3.4c1.1,0,1.9,0.5,2.4,1.2l-0.5,0.3c-0.4-0.6-1.1-1-2-1
				c-1.5,0-2.8,1.2-2.8,2.9c0,1.7,1.2,2.9,2.8,2.9c0.8,0,1.5-0.4,2-1l0.5,0.3c-0.6,0.7-1.4,1.2-2.4,1.2
				C2726.3,1656.5,2724.8,1655.1,2724.8,1653z"/>
			<path class="st3" d="M2733.5,1650.2h-2.2v-0.5h4.9v0.5h-2.2v6.1h-0.6V1650.2z"/>
		</g>
		<g class="st2">
			<path class="st3" d="M2680.8,1655c0.4,0.5,1.1,1,2.1,1c1.4,0,1.8-0.8,1.8-1.3c0-0.9-0.9-1.2-1.8-1.4c-1-0.3-2.2-0.6-2.2-1.8
				c0-1.1,1-1.8,2.2-1.8c1,0,1.7,0.3,2.3,0.9l-0.4,0.4c-0.5-0.6-1.2-0.8-1.9-0.8c-0.9,0-1.6,0.5-1.6,1.2c0,0.8,0.8,1,1.7,1.3
				c1.1,0.3,2.3,0.6,2.3,2c0,0.8-0.6,1.9-2.4,1.9c-1.1,0-1.9-0.4-2.4-1.1L2680.8,1655z"/>
			<path class="st3" d="M2686.6,1649.7h4.2v0.5h-3.7v2.5h3.6v0.5h-3.6v2.6h3.7v0.5h-4.2V1649.7z"/>
			<path class="st3" d="M2692.3,1649.7h2.5c1.3,0,2,0.9,2,1.9c0,1-0.7,1.9-2,1.9h-1.9v2.8h-0.6V1649.7z M2694.7,1650.2h-1.9v2.9h1.9
				c0.9,0,1.5-0.6,1.5-1.4C2696.2,1650.8,2695.6,1650.2,2694.7,1650.2z"/>
		</g>
		<g class="st2">
			<path class="st3" d="M2644.5,1654.7h-3.5l-0.7,1.6h-0.6l2.7-6.7h0.7l2.7,6.7h-0.6L2644.5,1654.7z M2641.1,1654.2h3.2l-1.6-3.9
				L2641.1,1654.2z"/>
			<path class="st3" d="M2646.5,1649.7h0.6v4.1c0,1.3,0.7,2.2,2,2.2c1.3,0,2-0.8,2-2.2v-4.1h0.6v4.1c0,1.6-0.9,2.7-2.6,2.7
				c-1.7,0-2.6-1-2.6-2.7V1649.7z"/>
			<path class="st3" d="M2656.5,1649.6c1.1,0,1.9,0.4,2.5,1.1l-0.4,0.3c-0.5-0.6-1.2-0.9-2.1-0.9c-1.6,0-2.8,1.2-2.8,2.9
				c0,1.7,1.2,2.9,2.8,2.9c0.9,0,1.6-0.4,2-0.8v-1.6h-2.5v-0.5h3.1v2.3c-0.6,0.7-1.5,1.1-2.5,1.1c-1.9,0-3.4-1.4-3.4-3.5
				S2654.6,1649.6,2656.5,1649.6z"/>
		</g>
		<g class="st2">
			<path class="st3" d="M2603.8,1655.2c0.3,0.4,0.7,0.7,1.3,0.7c0.9,0,1.5-0.6,1.5-1.5v-4.7h0.6v4.7c0,1.4-0.9,2-2,2
				c-0.7,0-1.3-0.3-1.7-0.8L2603.8,1655.2z"/>
			<path class="st3" d="M2608.8,1649.7h0.6v4.1c0,1.3,0.7,2.2,2,2.2s2-0.8,2-2.2v-4.1h0.6v4.1c0,1.6-0.9,2.7-2.6,2.7
				c-1.7,0-2.6-1-2.6-2.7V1649.7z"/>
			<path class="st3" d="M2615.7,1649.7h0.6v6.1h3.2v0.5h-3.8V1649.7z"/>
		</g>
		<g class="st2">
			<path class="st3" d="M2794.4,1649.7h2.5c2.1,0,3.5,1.4,3.5,3.3s-1.4,3.3-3.5,3.3h-2.5V1649.7z M2796.9,1655.3
				c1.4,0,2.3-1,2.3-2.3c0-1.3-0.8-2.3-2.3-2.3h-1.3v4.6H2796.9z"/>
			<path class="st3" d="M2801.5,1649.7h4.6v1h-3.4v1.7h3.3v1h-3.3v1.8h3.4v1h-4.6V1649.7z"/>
			<path class="st3" d="M2807,1653c0-2,1.5-3.4,3.4-3.4c1.4,0,2.2,0.7,2.7,1.5l-1,0.5c-0.3-0.5-1-1-1.7-1c-1.3,0-2.2,1-2.2,2.4
				s1,2.4,2.2,2.4c0.8,0,1.4-0.4,1.7-1l1,0.5c-0.5,0.8-1.3,1.5-2.7,1.5C2808.5,1656.5,2807,1655.1,2807,1653z"/>
		</g>
		<path id="Rectangle_1906" class="st4" d="M2803.6,1542.3L2803.6,1542.3c2.2,0,4,1.8,4,4v83c0,2.2-1.8,4-4,4l0,0c-2.2,0-4-1.8-4-4
			v-83C2799.6,1544.1,2801.4,1542.3,2803.6,1542.3z"/>
		<path id="Rectangle_1907" class="st4" d="M2764.6,1542.3L2764.6,1542.3c2.2,0,4,1.8,4,4v83c0,2.2-1.8,4-4,4l0,0c-2.2,0-4-1.8-4-4
			v-83C2760.6,1544.1,2762.4,1542.3,2764.6,1542.3z"/>
		<path id="Rectangle_1908" class="st4" d="M2726.6,1542.3L2726.6,1542.3c2.2,0,4,1.8,4,4v83c0,2.2-1.8,4-4,4l0,0c-2.2,0-4-1.8-4-4
			v-83C2722.6,1544.1,2724.4,1542.3,2726.6,1542.3z"/>
		<path id="Rectangle_1909" class="st4" d="M2688.6,1542.3L2688.6,1542.3c2.2,0,4,1.8,4,4v83c0,2.2-1.8,4-4,4l0,0c-2.2,0-4-1.8-4-4
			v-83C2684.6,1544.1,2686.4,1542.3,2688.6,1542.3z"/>
		<path id="Rectangle_1910" class="st4" d="M2649.6,1542.3L2649.6,1542.3c2.2,0,4,1.8,4,4v83c0,2.2-1.8,4-4,4l0,0c-2.2,0-4-1.8-4-4
			v-83C2645.6,1544.1,2647.4,1542.3,2649.6,1542.3z"/>
		<path id="Rectangle_1911" class="st4" d="M2611.6,1542.3L2611.6,1542.3c2.2,0,4,1.8,4,4v83c0,2.2-1.8,4-4,4l0,0c-2.2,0-4-1.8-4-4
			v-83C2607.6,1544.1,2609.4,1542.3,2611.6,1542.3z"/>
		<path id="Rectangle_1775" class="st5" d="M2803.6,1612.3L2803.6,1612.3c2.2,0,4,1.8,4,4v13c0,2.2-1.8,4-4,4l0,0c-2.2,0-4-1.8-4-4
			v-13C2799.6,1614.1,2801.4,1612.3,2803.6,1612.3z"/>
		<path id="Rectangle_1793" class="st5" d="M2611.6,1612.3L2611.6,1612.3c2.2,0,4,1.8,4,4v13c0,2.2-1.8,4-4,4l0,0c-2.2,0-4-1.8-4-4
			v-13C2607.6,1614.1,2609.4,1612.3,2611.6,1612.3z"/>
		<path id="Rectangle_1788" class="st5" d="M2649.6,1605.3L2649.6,1605.3c2.2,0,4,1.8,4,4v20c0,2.2-1.8,4-4,4l0,0c-2.2,0-4-1.8-4-4
			v-20C2645.6,1607.1,2647.4,1605.3,2649.6,1605.3z"/>
		<path id="Rectangle_1783" class="st5" d="M2688.6,1605.3L2688.6,1605.3c2.2,0,4,1.8,4,4v20c0,2.2-1.8,4-4,4l0,0c-2.2,0-4-1.8-4-4
			v-20C2684.6,1607.1,2686.4,1605.3,2688.6,1605.3z"/>
		<path id="Rectangle_1779" class="st5" d="M2726.6,1619.3L2726.6,1619.3c2.2,0,4,1.8,4,4v6c0,2.2-1.8,4-4,4l0,0c-2.2,0-4-1.8-4-4
			v-6C2722.6,1621.1,2724.4,1619.3,2726.6,1619.3z"/>
		<path id="Rectangle_1780" class="st5" d="M2764.1,1626.3h1c1.9,0,3.5,1.6,3.5,3.5l0,0c0,1.9-1.6,3.5-3.5,3.5h-1
			c-1.9,0-3.5-1.6-3.5-3.5l0,0C2760.6,1627.9,2762.1,1626.3,2764.1,1626.3z"/>
		<path id="Line_Chart-13" class="st6" d="M2611.6,1614.9c0,0,18.5-6.9,38.1-6.9h38.8c19.9,0,18.4,13.8,38.2,13.8s18.2,7.7,38.1,7.7
			s18.2-13.2,37.9-13.2"/>
		<g id="Details-13" transform="translate(2145.139 1614.209)">
			<path id="Tag-13" class="st14" d="M672.4-17.4l-11.6,7.8c-1.2,0.8-2.8,0.8-4,0l-11.6-7.8c-1-0.7-1.6-1.8-1.6-3V-30
				c0-2,1.6-3.7,3.6-3.7c0,0,0,0,0,0h23c2,0,3.7,1.6,3.7,3.7v9.7C673.9-19.1,673.3-18,672.4-17.4z"/>
			<g class="st2">
				<path class="st8" d="M654.7-25.1l-2,2l-1.5-1.5l3.8-3.8h2.2v12h-2.6V-25.1z"/>
				<path class="st8" d="M662.1-25.1l-2,2l-1.5-1.5l3.8-3.8h2.2v12h-2.6V-25.1z"/>
			</g>
			<g id="Ellipse_10-13" transform="translate(7.861 28.79)">
				<circle class="st14" cx="650.6" cy="-26.7" r="7"/>
				<circle class="st9" cx="650.6" cy="-26.7" r="5"/>
			</g>
		</g>
	</g>
	<rect id="Rectangle_1844" x="2598.6" y="1508.3" class="st10" width="220" height="150"/>
</g>
<g id="Group_285_1_" transform="translate(-1585 -1129)" class="st0">
	<g id="Group_272_1_" transform="translate(-5 -0.209)" class="st1">
		<g class="st2">
			<path class="st3" d="M2046.3,1214.6v5.8h-0.6v-6.7h0.6l4.2,5.7v-5.7h0.6v6.7h-0.6L2046.3,1214.6z"/>
			<path class="st3" d="M2055.7,1213.6c1.9,0,3.2,1.5,3.2,3.4s-1.3,3.4-3.2,3.4c-2,0-3.2-1.5-3.2-3.4S2053.8,1213.6,2055.7,1213.6z
				 M2055.7,1214.1c-1.6,0-2.6,1.2-2.6,2.9c0,1.7,1,2.9,2.6,2.9c1.6,0,2.6-1.3,2.6-2.9C2058.4,1215.3,2057.3,1214.1,2055.7,1214.1z"
				/>
			<path class="st3" d="M2059.5,1213.7h0.7l2.4,6l2.4-6h0.7l-2.7,6.7h-0.7L2059.5,1213.7z"/>
		</g>
		<g class="st2">
			<path class="st3" d="M2011.2,1213.6c1.9,0,3.2,1.5,3.2,3.4s-1.3,3.4-3.2,3.4c-2,0-3.2-1.5-3.2-3.4S2009.3,1213.6,2011.2,1213.6z
				 M2011.2,1214.1c-1.6,0-2.6,1.2-2.6,2.9c0,1.7,1,2.9,2.6,2.9c1.6,0,2.6-1.3,2.6-2.9C2013.8,1215.3,2012.8,1214.1,2011.2,1214.1z"
				/>
			<path class="st3" d="M2015.6,1217c0-2,1.5-3.4,3.4-3.4c1.1,0,1.9,0.5,2.4,1.2l-0.5,0.3c-0.4-0.6-1.1-1-2-1
				c-1.5,0-2.8,1.2-2.8,2.9c0,1.7,1.2,2.9,2.8,2.9c0.8,0,1.5-0.4,2-1l0.5,0.3c-0.6,0.7-1.4,1.2-2.4,1.2
				C2017.1,1220.5,2015.6,1219.1,2015.6,1217z"/>
			<path class="st3" d="M2024.3,1214.2h-2.2v-0.5h4.9v0.5h-2.2v6.1h-0.6V1214.2z"/>
		</g>
		<g class="st2">
			<path class="st3" d="M1971.6,1219c0.4,0.5,1.1,1,2.1,1c1.4,0,1.8-0.8,1.8-1.3c0-0.9-0.9-1.2-1.8-1.4c-1-0.3-2.2-0.6-2.2-1.8
				c0-1.1,1-1.8,2.2-1.8c1,0,1.7,0.3,2.3,0.9l-0.4,0.4c-0.5-0.6-1.2-0.8-1.9-0.8c-0.9,0-1.6,0.5-1.6,1.2c0,0.8,0.8,1,1.7,1.3
				c1.1,0.3,2.3,0.6,2.3,2c0,0.8-0.6,1.9-2.4,1.9c-1.1,0-1.9-0.4-2.4-1.1L1971.6,1219z"/>
			<path class="st3" d="M1977.5,1213.7h4.2v0.5h-3.7v2.5h3.6v0.5h-3.6v2.6h3.7v0.5h-4.2V1213.7z"/>
			<path class="st3" d="M1983.1,1213.7h2.5c1.3,0,2,0.9,2,1.9c0,1-0.7,1.9-2,1.9h-1.9v2.8h-0.6V1213.7z M1985.5,1214.2h-1.9v2.9h1.9
				c0.9,0,1.5-0.6,1.5-1.4C1987,1214.8,1986.4,1214.2,1985.5,1214.2z"/>
		</g>
		<g class="st2">
			<path class="st3" d="M1935.3,1218.7h-3.5l-0.7,1.6h-0.6l2.7-6.7h0.7l2.7,6.7h-0.6L1935.3,1218.7z M1931.9,1218.2h3.2l-1.6-3.9
				L1931.9,1218.2z"/>
			<path class="st3" d="M1937.4,1213.7h0.6v4.1c0,1.3,0.7,2.2,2,2.2c1.3,0,2-0.8,2-2.2v-4.1h0.6v4.1c0,1.6-0.9,2.7-2.6,2.7
				c-1.7,0-2.6-1-2.6-2.7V1213.7z"/>
			<path class="st3" d="M1947.3,1213.6c1.1,0,1.9,0.4,2.5,1.1l-0.4,0.3c-0.5-0.6-1.2-0.9-2.1-0.9c-1.6,0-2.8,1.2-2.8,2.9
				c0,1.7,1.2,2.9,2.8,2.9c0.9,0,1.6-0.4,2-0.8v-1.6h-2.5v-0.5h3.1v2.3c-0.6,0.7-1.5,1.1-2.5,1.1c-1.9,0-3.4-1.4-3.4-3.5
				S1945.5,1213.6,1947.3,1213.6z"/>
		</g>
		<g class="st2">
			<path class="st3" d="M1894.6,1219.2c0.3,0.4,0.7,0.7,1.3,0.7c0.9,0,1.5-0.6,1.5-1.5v-4.7h0.6v4.7c0,1.4-0.9,2-2,2
				c-0.7,0-1.3-0.3-1.7-0.8L1894.6,1219.2z"/>
			<path class="st3" d="M1899.6,1213.7h0.6v4.1c0,1.3,0.7,2.2,2,2.2c1.3,0,2-0.8,2-2.2v-4.1h0.6v4.1c0,1.6-0.9,2.7-2.6,2.7
				c-1.7,0-2.6-1-2.6-2.7V1213.7z"/>
			<path class="st3" d="M1906.5,1213.7h0.6v6.1h3.2v0.5h-3.8V1213.7z"/>
		</g>
		<g class="st2">
			<path class="st3" d="M2085.3,1213.7h2.5c2.1,0,3.5,1.4,3.5,3.3s-1.4,3.3-3.5,3.3h-2.5V1213.7z M2087.7,1219.3
				c1.4,0,2.3-1,2.3-2.3c0-1.3-0.8-2.3-2.3-2.3h-1.3v4.6H2087.7z"/>
			<path class="st3" d="M2092.4,1213.7h4.6v1h-3.4v1.7h3.3v1h-3.3v1.8h3.4v1h-4.6V1213.7z"/>
			<path class="st3" d="M2097.8,1217c0-2,1.5-3.4,3.4-3.4c1.4,0,2.2,0.7,2.7,1.5l-1,0.5c-0.3-0.5-1-1-1.7-1c-1.3,0-2.2,1-2.2,2.4
				s1,2.4,2.2,2.4c0.8,0,1.4-0.4,1.7-1l1,0.5c-0.5,0.8-1.3,1.5-2.7,1.5C2099.4,1220.5,2097.8,1219.1,2097.8,1217z"/>
		</g>
		<path id="Rectangle_1924" class="st4" d="M2094.4,1106.3L2094.4,1106.3c2.2,0,4,1.8,4,4v83c0,2.2-1.8,4-4,4l0,0c-2.2,0-4-1.8-4-4
			v-83C2090.4,1108.1,2092.2,1106.3,2094.4,1106.3z"/>
		<path id="Rectangle_1925" class="st4" d="M2055.4,1106.3L2055.4,1106.3c2.2,0,4,1.8,4,4v83c0,2.2-1.8,4-4,4l0,0c-2.2,0-4-1.8-4-4
			v-83C2051.4,1108.1,2053.2,1106.3,2055.4,1106.3z"/>
		<path id="Rectangle_1926" class="st4" d="M2017.4,1106.3L2017.4,1106.3c2.2,0,4,1.8,4,4v83c0,2.2-1.8,4-4,4l0,0c-2.2,0-4-1.8-4-4
			v-83C2013.4,1108.1,2015.2,1106.3,2017.4,1106.3z"/>
		<path id="Rectangle_1927" class="st4" d="M1979.4,1106.3L1979.4,1106.3c2.2,0,4,1.8,4,4v83c0,2.2-1.8,4-4,4l0,0c-2.2,0-4-1.8-4-4
			v-83C1975.4,1108.1,1977.2,1106.3,1979.4,1106.3z"/>
		<path id="Rectangle_1928" class="st4" d="M1940.4,1106.3L1940.4,1106.3c2.2,0,4,1.8,4,4v83c0,2.2-1.8,4-4,4l0,0c-2.2,0-4-1.8-4-4
			v-83C1936.4,1108.1,1938.2,1106.3,1940.4,1106.3z"/>
		<path id="Rectangle_1929" class="st4" d="M1902.4,1106.3L1902.4,1106.3c2.2,0,4,1.8,4,4v83c0,2.2-1.8,4-4,4l0,0c-2.2,0-4-1.8-4-4
			v-83C1898.4,1108.1,1900.2,1106.3,1902.4,1106.3z"/>
		<path id="Rectangle_1680_1_" class="st5" d="M2094.4,1141.3L2094.4,1141.3c2.2,0,4,1.8,4,4v48c0,2.2-1.8,4-4,4l0,0
			c-2.2,0-4-1.8-4-4v-48C2090.4,1143.1,2092.2,1141.3,2094.4,1141.3z"/>
		<path id="Rectangle_1697_1_" class="st5" d="M1902.4,1155.3L1902.4,1155.3c2.2,0,4,1.8,4,4v34c0,2.2-1.8,4-4,4l0,0
			c-2.2,0-4-1.8-4-4v-34C1898.4,1157.1,1900.2,1155.3,1902.4,1155.3z"/>
		<path id="Rectangle_1692_1_" class="st5" d="M1940.4,1120.3L1940.4,1120.3c2.2,0,4,1.8,4,4v69c0,2.2-1.8,4-4,4l0,0
			c-2.2,0-4-1.8-4-4v-69C1936.4,1122.1,1938.2,1120.3,1940.4,1120.3z"/>
		<path id="Rectangle_1688_1_" class="st5" d="M1979.4,1127.3L1979.4,1127.3c2.2,0,4,1.8,4,4v62c0,2.2-1.8,4-4,4l0,0
			c-2.2,0-4-1.8-4-4v-62C1975.4,1129.1,1977.2,1127.3,1979.4,1127.3z"/>
		<path id="Rectangle_1681_1_" class="st5" d="M2017.4,1162.3L2017.4,1162.3c2.2,0,4,1.8,4,4v27c0,2.2-1.8,4-4,4l0,0
			c-2.2,0-4-1.8-4-4v-27C2013.4,1164.1,2015.2,1162.3,2017.4,1162.3z"/>
		<path id="Rectangle_1682_1_" class="st5" d="M2055.4,1155.3L2055.4,1155.3c2.2,0,4,1.8,4,4v34c0,2.2-1.8,4-4,4l0,0
			c-2.2,0-4-1.8-4-4v-34C2051.4,1157.1,2053.2,1155.3,2055.4,1155.3z"/>
		<path id="Line_Chart_1_" class="st6" d="M1902.5,1158c0,0,18.5-35.6,38.1-35.6s18.4,7.4,38.2,7.4c19.9,0,18.8,35.2,38.7,35.2
			c19.8,0,17.9-7.1,37.8-7.1s18.7-12,38.4-12"/>
		<g id="Details_1_" transform="translate(1776.139 1166.209)">
			<path id="Tag_1_" class="st11" d="M332.2-40.4l-11.6,7.8c-1.2,0.8-2.8,0.8-4,0L305-40.4c-1-0.7-1.6-1.8-1.6-3V-53
				c0-2,1.6-3.7,3.6-3.7c0,0,0,0,0,0h23.1c2,0,3.7,1.6,3.7,3.7v9.7C333.8-42.1,333.2-41,332.2-40.4z"/>
			<g class="st2">
				<path class="st8" d="M319-51.6c1.5,0,2.7,0.5,3.5,1.2l-1.2,1.9c-0.6-0.6-1.3-1-2.4-1c-1.8,0-3,1.6-3,3.5c0,0.1,0,0.2,0,0.3
					c0.6-0.8,1.8-1.5,3.1-1.5c2.2,0,4.1,1.3,4.1,3.9c0,2.3-1.9,4.1-4.6,4.1c-3.7,0-5.2-2.8-5.2-6.2C313.4-49,315.5-51.6,319-51.6z
					 M318.4-45.1c-0.9,0-1.8,0.5-2.3,1.2c0.1,1.2,0.8,2.5,2.4,2.5c1.4,0,2.1-0.9,2.1-1.8C320.6-44.5,319.5-45.1,318.4-45.1z"/>
			</g>
			<g id="Ellipse_10_1_" transform="translate(7.861 28.79)">
				<circle class="st11" cx="310.4" cy="-49.7" r="7"/>
				<circle class="st9" cx="310.4" cy="-49.7" r="5"/>
			</g>
		</g>
	</g>
	<rect id="Rectangle_1837_1_" x="1889.4" y="1072.3" class="st10" width="220" height="150"/>
</g>
<g>
</g>
<g>
</g>
<g>
</g>
<g>
</g>
<g>
</g>
<g>
</g>
<g>
</g>
<g>
</g>
<g>
</g>
<g>
</g>
<g>
</g>
<g>
</g>
<g>
</g>
<g>
</g>
<g>
</g>
</svg>
